# Blender 4.1.1
# www.blender.org
mtllib Chamber.mtl
o Cylinder
v -0.452207 -0.390332 -0.323351
v -0.687530 0.141761 -0.491618
v -0.382841 -0.390332 -0.403088
v -0.582066 0.141761 -0.612850
v -0.299637 -0.390332 -0.468257
v -0.455565 0.141761 -0.711931
v -0.205604 -0.390332 -0.516501
v -0.312598 0.141761 -0.785282
v -0.104140 -0.390332 -0.546078
v -0.158333 0.141761 -0.830251
v 0.001088 -0.390332 -0.555919
v 0.001654 0.141761 -0.845212
v 0.106276 -0.390332 -0.545667
v 0.161581 0.141761 -0.829625
v 0.207624 -0.390332 -0.515693
v 0.315669 0.141761 -0.784053
v 0.301467 -0.390332 -0.467081
v 0.458347 0.141761 -0.710143
v 0.384415 -0.390332 -0.401587
v 0.584460 0.141761 -0.610567
v 0.453469 -0.390332 -0.321579
v 0.689449 0.141761 -0.488924
v 0.506133 -0.390332 -0.229948
v 0.769519 0.141761 -0.349609
v 0.540505 -0.390332 -0.130006
v 0.821776 0.141761 -0.197659
v 0.555341 -0.390332 -0.025365
v 0.844333 0.141761 -0.038565
v 0.550105 -0.390332 0.080192
v 0.836373 0.141761 0.121923
v 0.524988 -0.390332 0.182851
v 0.798185 0.141761 0.278004
v 0.480896 -0.390332 0.278901
v 0.731148 0.141761 0.424038
v 0.419423 -0.390332 0.364871
v 0.637685 0.141761 0.554746
v 0.342791 -0.390332 0.437654
v 0.521175 0.141761 0.665404
v 0.253770 -0.390332 0.494619
v 0.385828 0.141761 0.752012
v 0.155577 -0.390332 0.533706
v 0.236537 0.141761 0.811441
v 0.051761 -0.390332 0.553505
v 0.078696 0.141761 0.841542
v -0.053926 -0.390332 0.553298
v -0.081989 0.141761 0.841227
v -0.157664 -0.390332 0.533094
v -0.239710 0.141761 0.810509
v -0.255704 -0.390332 0.493622
v -0.388768 0.141761 0.750496
v -0.344501 -0.390332 0.436309
v -0.523775 0.141761 0.663359
v -0.420848 -0.390332 0.363227
v -0.639851 0.141761 0.552246
v -0.481984 -0.390332 0.277017
v -0.732802 0.141761 0.421174
v -0.525699 -0.390332 0.180795
v -0.799267 0.141761 0.274879
v -0.550415 -0.390332 0.078039
v -0.836844 0.141761 0.118649
v -0.555237 -0.390332 -0.027538
v -0.844176 0.141761 -0.041869
v -0.539992 -0.390332 -0.132120
v -0.820997 0.141761 -0.200873
v -0.505230 -0.390332 -0.231926
v -0.768145 0.141761 -0.352618
v -0.155912 -0.824710 -0.111485
v -0.131996 -0.824710 -0.138977
v -0.070888 -0.824710 -0.178079
v -0.035905 -0.824710 -0.188277
v 0.036642 -0.824710 -0.188135
v 0.071584 -0.824710 -0.177801
v 0.132539 -0.824710 -0.138459
v 0.156347 -0.824710 -0.110874
v 0.186355 -0.824710 -0.044823
v 0.191470 -0.824710 -0.008745
v 0.181005 -0.824710 0.063043
v 0.165803 -0.824710 0.096160
v 0.118187 -0.824710 0.150894
v 0.087495 -0.824710 0.170535
v 0.017846 -0.824710 0.190837
v -0.018593 -0.824710 0.190766
v -0.088161 -0.824710 0.170191
v -0.118777 -0.824710 0.150431
v -0.166178 -0.824710 0.095510
v -0.181251 -0.824710 0.062334
v -0.191435 -0.824710 -0.009495
v -0.186179 -0.824710 -0.045552
v -0.452207 0.673854 -0.323351
v -0.382841 0.673854 -0.403088
v -0.299637 0.673854 -0.468257
v -0.205604 0.673854 -0.516501
v -0.104140 0.673854 -0.546078
v 0.001088 0.673854 -0.555919
v 0.106276 0.673854 -0.545667
v 0.207624 0.673854 -0.515693
v 0.301467 0.673854 -0.467081
v 0.384415 0.673854 -0.401587
v 0.453469 0.673854 -0.321579
v 0.506133 0.673854 -0.229948
v 0.540505 0.673854 -0.130006
v 0.555341 0.673854 -0.025365
v 0.550105 0.673854 0.080192
v 0.524988 0.673854 0.182851
v 0.480896 0.673854 0.278901
v 0.419423 0.673854 0.364871
v 0.342791 0.673854 0.437654
v 0.253770 0.673854 0.494619
v 0.155577 0.673854 0.533706
v 0.051761 0.673854 0.553505
v -0.053926 0.673854 0.553298
v -0.157664 0.673854 0.533094
v -0.255704 0.673854 0.493622
v -0.344501 0.673854 0.436309
v -0.420848 0.673854 0.363227
v -0.481984 0.673854 0.277017
v -0.525699 0.673854 0.180795
v -0.550415 0.673854 0.078039
v -0.555237 0.673854 -0.027538
v -0.539992 0.673854 -0.132120
v -0.505230 0.673854 -0.231926
v -0.155912 1.108232 -0.111485
v -0.131996 1.108232 -0.138977
v -0.070888 1.108232 -0.178079
v -0.035905 1.108232 -0.188277
v 0.036642 1.108232 -0.188135
v 0.071584 1.108232 -0.177801
v 0.132539 1.108232 -0.138459
v 0.156347 1.108232 -0.110874
v 0.186355 1.108232 -0.044823
v 0.191470 1.108232 -0.008745
v 0.181005 1.108232 0.063043
v 0.165803 1.108232 0.096160
v 0.118187 1.108232 0.150894
v 0.087495 1.108232 0.170535
v 0.017846 1.108232 0.190837
v -0.018593 1.108232 0.190766
v -0.088161 1.108232 0.170191
v -0.118777 1.108232 0.150431
v -0.166178 1.108232 0.095510
v -0.181251 1.108232 0.062334
v -0.191435 1.108232 -0.009495
v -0.186179 1.108232 -0.045552
vn 0.4163 0.6408 -0.6450
vn -0.5423 -0.4760 -0.6924
vn -0.4015 -0.4760 -0.7825
vn -0.5812 0.6408 0.5016
vn -0.0819 -0.4760 -0.8756
vn 0.0853 -0.4760 -0.8753
vn -0.4138 0.6408 -0.6466
vn 0.4045 -0.4760 -0.7809
vn 0.5450 -0.4760 -0.6902
vn 0.6989 0.6408 -0.3175
vn 0.7625 -0.4760 -0.4382
vn 0.8316 -0.4760 -0.2860
vn 0.5792 0.6408 0.5039
vn 0.8784 -0.4760 0.0436
vn 0.8543 -0.4760 0.2090
vn 0.2148 0.6408 0.7370
vn 0.7154 -0.4760 0.5115
vn 0.6056 -0.4760 0.6377
vn -0.7601 0.6408 0.1078
vn 0.3253 -0.4760 0.8171
vn 0.1647 -0.4760 0.8639
vn 0.0015 0.6408 -0.7677
vn -0.1681 -0.4760 0.8632
vn -0.3285 -0.4760 0.8158
vn 0.7597 0.6408 0.1107
vn -0.6081 -0.4760 0.6353
vn -0.7174 -0.4760 0.5087
vn -0.2177 0.6408 0.7362
vn -0.8551 -0.4760 0.2057
vn -0.8785 -0.4760 0.0401
vn -0.6977 0.6408 -0.3203
vn -0.8305 -0.4760 -0.2893
vn -0.7608 -0.4760 -0.4412
vn -0.0000 -1.0000 -0.0000
vn 0.4163 -0.6408 -0.6450
vn -0.5423 0.4760 -0.6924
vn -0.4015 0.4760 -0.7825
vn -0.5812 -0.6408 0.5016
vn -0.0819 0.4760 -0.8756
vn 0.0853 0.4760 -0.8753
vn -0.4138 -0.6408 -0.6466
vn 0.4045 0.4760 -0.7809
vn 0.5450 0.4760 -0.6902
vn 0.6989 -0.6408 -0.3175
vn 0.7625 0.4760 -0.4382
vn 0.8316 0.4760 -0.2860
vn 0.5792 -0.6408 0.5039
vn 0.8784 0.4760 0.0436
vn 0.8543 0.4760 0.2090
vn 0.2148 -0.6408 0.7370
vn 0.7154 0.4760 0.5115
vn 0.6056 0.4760 0.6377
vn -0.7601 -0.6408 0.1078
vn 0.3253 0.4760 0.8171
vn 0.1647 0.4760 0.8639
vn 0.0015 -0.6408 -0.7677
vn -0.1681 0.4760 0.8632
vn -0.3285 0.4760 0.8158
vn 0.7597 -0.6408 0.1107
vn -0.6081 0.4760 0.6353
vn -0.7174 0.4760 0.5087
vn -0.2177 -0.6408 0.7362
vn -0.8551 0.4760 0.2057
vn -0.8785 0.4760 0.0401
vn -0.6977 -0.6408 -0.3203
vn -0.8305 0.4760 -0.2893
vn -0.7608 0.4760 -0.4412
vn -0.0000 1.0000 -0.0000
vt 0.348516 0.793734
vt 0.429609 0.590271
vt 0.295926 0.759756
vt 0.155231 0.137757
vt 0.322497 0.223480
vt 0.273220 0.262115
vt 0.230150 0.079016
vt 0.378187 0.194878
vt 0.768515 0.310438
vt 0.578448 0.419002
vt 0.592548 0.435356
vt 0.406182 0.008870
vt 0.500598 0.171509
vt 0.438278 0.177343
vt 0.500933 0.000000
vt 0.562894 0.177587
vt 0.702968 0.760553
vt 0.551771 0.602190
vt 0.650246 0.794325
vt 0.686905 0.036258
vt 0.678494 0.224177
vt 0.622916 0.195357
vt 0.771404 0.080076
vt 0.727619 0.263005
vt 0.188614 0.608273
vt 0.401536 0.557711
vt 0.392610 0.538043
vt 0.908271 0.211227
vt 0.799705 0.364762
vt 0.955692 0.293820
vt 0.820061 0.424014
vt 0.232139 0.309388
vt 0.421780 0.418695
vt 1.000000 0.478224
vt 0.825747 0.548630
vt 0.828847 0.486050
vt 0.995286 0.573371
vt 0.810871 0.609492
vt 0.457971 0.395513
vt 0.478689 0.389467
vt 0.932967 0.752481
vt 0.748352 0.717404
vt 0.784759 0.666436
vt 0.877615 0.829972
vt 0.613349 0.495903
vt 0.728456 0.946922
vt 0.592092 0.817498
vt 0.640040 0.982154
vt 0.530608 0.829236
vt 0.468016 0.829113
vt 0.510523 0.614227
vt 0.488942 0.614184
vt 0.451396 0.999814
vt 0.406579 0.817135
vt 0.357988 0.981602
vt 0.171120 0.484762
vt 0.389691 0.474082
vt 0.180149 0.422760
vt 0.189753 0.894364
vt 0.250711 0.716429
vt 0.121009 0.828490
vt 0.214504 0.665319
vt 0.542348 0.395678
vt 0.026597 0.664051
vt 0.173976 0.547354
vt 0.000000 0.476266
vt 0.598149 0.558096
vt 0.013727 0.381999
vt 0.200737 0.363589
vt 0.045028 0.292037
vt 0.429609 0.409729
vt 0.348516 0.206266
vt 0.295926 0.240244
vt 0.322497 0.776520
vt 0.155231 0.862243
vt 0.273220 0.737885
vt 0.378187 0.805122
vt 0.230150 0.920984
vt 0.768515 0.689562
vt 0.578448 0.580998
vt 0.727619 0.736995
vt 0.438278 0.822657
vt 0.500933 1.000000
vt 0.406182 0.991130
vt 0.562894 0.822413
vt 0.500598 0.828491
vt 0.551771 0.397810
vt 0.702967 0.239447
vt 0.650246 0.205675
vt 0.678494 0.775823
vt 0.686905 0.963742
vt 0.622916 0.804643
vt 0.771404 0.919924
vt 0.188614 0.391727
vt 0.401536 0.442289
vt 0.214504 0.334681
vt 0.799705 0.635238
vt 0.908271 0.788773
vt 0.820061 0.575987
vt 0.955692 0.706180
vt 0.421780 0.581305
vt 0.232139 0.690612
vt 0.825747 0.451370
vt 1.000000 0.521776
vt 0.828848 0.513950
vt 0.810871 0.390508
vt 0.995286 0.426629
vt 0.478689 0.610533
vt 0.748352 0.282597
vt 0.932968 0.247519
vt 0.784759 0.333564
vt 0.877615 0.170029
vt 0.610320 0.525486
vt 0.592092 0.182502
vt 0.728456 0.053078
vt 0.530608 0.170764
vt 0.640040 0.017846
vt 0.468016 0.170887
vt 0.510522 0.385773
vt 0.406579 0.182865
vt 0.451397 0.000187
vt 0.357988 0.018398
vt 0.389691 0.525918
vt 0.171120 0.515238
vt 0.180150 0.577240
vt 0.250711 0.283571
vt 0.189754 0.105637
vt 0.121009 0.171510
vt 0.542349 0.604322
vt 0.173976 0.452646
vt 0.026597 0.335949
vt 0.000000 0.523734
vt 0.004342 0.428570
vt 0.598149 0.441904
vt 0.200737 0.636411
vt 0.013727 0.618001
vt 0.045029 0.707963
vt 0.447741 0.601986
vt 0.314821 0.035530
vt 0.595648 0.009241
vt 0.569949 0.590546
vt 0.846093 0.139110
vt 0.986641 0.383905
vt 0.407616 0.434994
vt 0.972669 0.665904
vt 0.808614 0.895576
vt 0.610320 0.474514
vt 0.546560 1.000000
vt 0.269710 0.946024
vt 0.386578 0.495459
vt 0.065960 0.750783
vt 0.521654 0.389551
vt 0.004342 0.571430
vt 0.607152 0.538464
vt 0.092772 0.209630
vt 0.447741 0.398014
vt 0.314821 0.964471
vt 0.592548 0.564644
vt 0.595648 0.990759
vt 0.569949 0.409454
vt 0.846093 0.860890
vt 0.392610 0.461957
vt 0.986641 0.616095
vt 0.407616 0.565006
vt 0.972669 0.334096
vt 0.457971 0.604487
vt 0.808614 0.104424
vt 0.613350 0.504097
vt 0.546560 0.000000
vt 0.488942 0.385816
vt 0.269710 0.053977
vt 0.386578 0.504541
vt 0.065960 0.249217
vt 0.521654 0.610449
vt 0.607152 0.461537
vt 0.092772 0.790370
s 0
usemtl Material.004
f 49/1/1 84/2/1 51/3/1
f 4/4/2 5/5/2 3/6/2
f 6/7/3 7/8/3 5/5/3
f 21/9/4 73/10/4 74/11/4
f 10/12/5 11/13/5 9/14/5
f 12/15/6 13/16/6 11/13/6
f 37/17/7 80/18/7 39/19/7
f 16/20/8 17/21/8 15/22/8
f 18/23/9 19/24/9 17/21/9
f 57/25/10 85/26/10 86/27/10
f 22/28/11 23/29/11 21/9/11
f 24/30/12 25/31/12 23/29/12
f 1/32/13 68/33/13 3/6/13
f 28/34/14 29/35/14 27/36/14
f 30/37/15 31/38/15 29/35/15
f 9/14/16 69/39/16 70/40/16
f 34/41/17 35/42/17 33/43/17
f 36/44/18 37/17/18 35/42/18
f 25/31/19 76/45/19 27/36/19
f 40/46/20 41/47/20 39/19/20
f 42/48/21 43/49/21 41/47/21
f 45/50/22 81/51/22 82/52/22
f 46/53/23 47/54/23 45/50/23
f 48/55/24 49/1/24 47/54/24
f 61/56/25 88/57/25 63/58/25
f 52/59/26 53/60/26 51/3/26
f 54/61/27 55/62/27 53/60/27
f 13/16/28 72/63/28 15/22/28
f 58/64/29 59/65/29 57/25/29
f 59/65/30 62/66/30 61/56/30
f 31/38/31 78/67/31 33/43/31
f 64/68/32 65/69/32 63/58/32
f 66/70/33 1/32/33 65/69/33
f 3/6/34 35/42/34 51/3/34
f 139/71/35 113/72/35 114/73/35
f 91/74/36 4/75/36 90/76/36
f 92/77/37 6/78/37 91/74/37
f 99/79/38 128/80/38 98/81/38
f 93/82/39 12/83/39 10/84/39
f 95/85/40 12/83/40 94/86/40
f 135/87/41 107/88/41 108/89/41
f 97/90/42 16/91/42 96/92/42
f 98/81/43 18/93/43 97/90/43
f 117/94/44 140/95/44 116/96/44
f 100/97/45 22/98/45 99/79/45
f 101/99/46 24/100/46 100/97/46
f 123/101/47 89/102/47 90/76/47
f 103/103/48 28/104/48 102/105/48
f 104/106/49 30/107/49 103/103/49
f 125/108/50 92/77/50 93/82/50
f 106/109/51 34/110/51 105/111/51
f 107/88/52 36/112/52 106/109/52
f 102/105/53 130/113/53 101/99/53
f 109/114/54 40/115/54 108/89/54
f 110/116/55 42/117/55 109/114/55
f 111/118/56 136/119/56 110/116/56
f 112/120/57 46/121/57 111/118/57
f 113/72/58 48/122/58 112/120/58
f 143/123/59 119/124/59 120/125/59
f 115/126/60 52/127/60 114/73/60
f 116/96/61 54/128/61 115/126/61
f 127/129/62 95/85/62 96/92/62
f 118/130/63 58/131/63 117/94/63
f 118/130/64 62/132/64 60/133/64
f 133/134/65 104/106/65 105/111/65
f 121/135/66 64/136/66 120/125/66
f 89/102/67 66/137/67 121/135/67
f 121/135/68 105/111/68 97/90/68
f 49/1/1 83/138/1 84/2/1
f 4/4/2 6/7/2 5/5/2
f 6/7/3 8/139/3 7/8/3
f 21/9/4 19/24/4 73/10/4
f 10/12/5 12/15/5 11/13/5
f 12/15/6 14/140/6 13/16/6
f 37/17/7 79/141/7 80/18/7
f 16/20/8 18/23/8 17/21/8
f 18/23/9 20/142/9 19/24/9
f 57/25/10 55/62/10 85/26/10
f 22/28/11 24/30/11 23/29/11
f 24/30/12 26/143/12 25/31/12
f 1/32/13 67/144/13 68/33/13
f 28/34/14 30/37/14 29/35/14
f 30/37/15 32/145/15 31/38/15
f 9/14/16 7/8/16 69/39/16
f 34/41/17 36/44/17 35/42/17
f 36/44/18 38/146/18 37/17/18
f 25/31/19 75/147/19 76/45/19
f 40/46/20 42/48/20 41/47/20
f 42/48/21 44/148/21 43/49/21
f 45/50/22 43/49/22 81/51/22
f 46/53/23 48/55/23 47/54/23
f 48/55/24 50/149/24 49/1/24
f 61/56/25 87/150/25 88/57/25
f 52/59/26 54/61/26 53/60/26
f 54/61/27 56/151/27 55/62/27
f 13/16/28 71/152/28 72/63/28
f 58/64/29 60/153/29 59/65/29
f 59/65/30 60/153/30 62/66/30
f 31/38/31 77/154/31 78/67/31
f 64/68/32 66/70/32 65/69/32
f 66/70/33 2/155/33 1/32/33
f 65/69/34 1/32/34 3/6/34
f 3/6/34 5/5/34 7/8/34
f 7/8/34 9/14/34 11/13/34
f 11/13/34 13/16/34 15/22/34
f 15/22/34 17/21/34 19/24/34
f 19/24/34 21/9/34 23/29/34
f 23/29/34 25/31/34 27/36/34
f 27/36/34 29/35/34 31/38/34
f 31/38/34 33/43/34 35/42/34
f 35/42/34 37/17/34 39/19/34
f 39/19/34 41/47/34 43/49/34
f 43/49/34 45/50/34 47/54/34
f 47/54/34 49/1/34 51/3/34
f 51/3/34 53/60/34 55/62/34
f 55/62/34 57/25/34 59/65/34
f 59/65/34 61/56/34 63/58/34
f 63/58/34 65/69/34 3/6/34
f 3/6/34 7/8/34 11/13/34
f 11/13/34 15/22/34 19/24/34
f 19/24/34 23/29/34 27/36/34
f 27/36/34 31/38/34 35/42/34
f 35/42/34 39/19/34 43/49/34
f 43/49/34 47/54/34 51/3/34
f 51/3/34 55/62/34 59/65/34
f 59/65/34 63/58/34 3/6/34
f 3/6/34 11/13/34 19/24/34
f 19/24/34 27/36/34 35/42/34
f 35/42/34 43/49/34 51/3/34
f 51/3/34 59/65/34 3/6/34
f 3/6/34 19/24/34 35/42/34
f 139/71/35 138/156/35 113/72/35
f 91/74/36 6/78/36 4/75/36
f 92/77/37 8/157/37 6/78/37
f 99/79/38 129/158/38 128/80/38
f 93/82/39 94/86/39 12/83/39
f 95/85/40 14/159/40 12/83/40
f 135/87/41 134/160/41 107/88/41
f 97/90/42 18/93/42 16/91/42
f 98/81/43 20/161/43 18/93/43
f 117/94/44 141/162/44 140/95/44
f 100/97/45 24/100/45 22/98/45
f 101/99/46 26/163/46 24/100/46
f 123/101/47 122/164/47 89/102/47
f 103/103/48 30/107/48 28/104/48
f 104/106/49 32/165/49 30/107/49
f 125/108/50 124/166/50 92/77/50
f 106/109/51 36/112/51 34/110/51
f 107/88/52 38/167/52 36/112/52
f 102/105/53 131/168/53 130/113/53
f 109/114/54 42/117/54 40/115/54
f 110/116/55 44/169/55 42/117/55
f 111/118/56 137/170/56 136/119/56
f 112/120/57 48/122/57 46/121/57
f 113/72/58 50/171/58 48/122/58
f 143/123/59 142/172/59 119/124/59
f 115/126/60 54/128/60 52/127/60
f 116/96/61 56/173/61 54/128/61
f 127/129/62 126/174/62 95/85/62
f 118/130/63 60/133/63 58/131/63
f 118/130/64 119/124/64 62/132/64
f 133/134/65 132/175/65 104/106/65
f 121/135/66 66/137/66 64/136/66
f 89/102/67 2/176/67 66/137/67
f 90/76/68 89/102/68 121/135/68
f 121/135/68 120/125/68 119/124/68
f 119/124/68 118/130/68 117/94/68
f 117/94/68 116/96/68 115/126/68
f 115/126/68 114/73/68 113/72/68
f 113/72/68 112/120/68 111/118/68
f 111/118/68 110/116/68 109/114/68
f 109/114/68 108/89/68 107/88/68
f 107/88/68 106/109/68 105/111/68
f 105/111/68 104/106/68 103/103/68
f 103/103/68 102/105/68 101/99/68
f 101/99/68 100/97/68 99/79/68
f 99/79/68 98/81/68 97/90/68
f 97/90/68 96/92/68 95/85/68
f 95/85/68 94/86/68 93/82/68
f 93/82/68 92/77/68 91/74/68
f 91/74/68 90/76/68 121/135/68
f 121/135/68 119/124/68 117/94/68
f 117/94/68 115/126/68 113/72/68
f 113/72/68 111/118/68 109/114/68
f 109/114/68 107/88/68 105/111/68
f 105/111/68 103/103/68 101/99/68
f 101/99/68 99/79/68 97/90/68
f 97/90/68 95/85/68 93/82/68
f 93/82/68 91/74/68 121/135/68
f 121/135/68 117/94/68 113/72/68
f 113/72/68 109/114/68 105/111/68
f 105/111/68 101/99/68 97/90/68
f 97/90/68 93/82/68 121/135/68
f 121/135/68 113/72/68 105/111/68
