# Blender 4.1.1
# www.blender.org
mtllib wire.mtl
o BézierCurve
v -1.718375 0.193574 -0.008252
v -1.699108 0.213560 0.014041
v -1.688512 0.224652 0.046170
v -1.688685 0.224652 0.081773
v -1.699594 0.213560 0.113798
v -1.719077 0.193574 0.135902
v -1.743275 0.168652 0.143707
v -1.767397 0.143730 0.135666
v -1.786664 0.123744 0.113374
v -1.797260 0.112653 0.081245
v -1.797086 0.112653 0.045642
v -1.786178 0.123744 0.013617
v -1.766695 0.143730 -0.008487
v -1.742496 0.168652 -0.016292
v -1.106051 -0.257045 -0.005407
v -1.095406 -0.231374 0.016847
v -1.089581 -0.217136 0.048956
v -1.089731 -0.217151 0.084559
v -1.095827 -0.231416 0.116605
v -1.106660 -0.257107 0.138746
v -1.120085 -0.289133 0.146599
v -1.133443 -0.321153 0.138606
v -1.144089 -0.346824 0.116351
v -1.149914 -0.361062 0.084243
v -1.149764 -0.361047 0.048640
v -1.143668 -0.346781 0.016594
v -1.132835 -0.321091 -0.005548
v -1.119410 -0.289065 -0.013400
v -0.653631 -0.329807 -0.003794
v -0.657054 -0.302191 0.018415
v -0.659000 -0.286879 0.050499
v -0.659083 -0.286904 0.086102
v -0.657287 -0.302260 0.118173
v -0.653968 -0.329906 0.140361
v -0.649783 -0.364367 0.148269
v -0.645562 -0.398816 0.140333
v -0.642139 -0.426432 0.118123
v -0.640193 -0.441744 0.086040
v -0.640110 -0.441719 0.050436
v -0.641906 -0.426363 0.018365
v -0.645225 -0.398717 -0.003822
v -0.649410 -0.364256 -0.011730
v -0.288484 -0.173559 -0.003352
v -0.302121 -0.149292 0.018846
v -0.309684 -0.135822 0.050923
v -0.309674 -0.135816 0.086527
v -0.302094 -0.149275 0.118604
v -0.288444 -0.173535 0.140803
v -0.271430 -0.203789 0.148726
v -0.254419 -0.234046 0.140804
v -0.240782 -0.258313 0.118606
v -0.233220 -0.271783 0.086528
v -0.233230 -0.271789 0.050925
v -0.240810 -0.258330 0.018847
v -0.254459 -0.234070 -0.003351
v -0.271474 -0.203816 -0.011274
v 0.057432 0.075150 -0.004099
v 0.043027 0.098968 0.018101
v 0.035087 0.112217 0.050179
v 0.035185 0.112275 0.085782
v 0.043301 0.099129 0.117859
v 0.057828 0.075383 0.140056
v 0.075888 0.045740 0.147977
v 0.093905 0.016072 0.140052
v 0.108310 -0.007746 0.117853
v 0.116250 -0.020995 0.085775
v 0.116152 -0.021053 0.050172
v 0.108036 -0.007907 0.018095
v 0.093509 0.015839 -0.004102
v 0.075448 0.045482 -0.012023
v 0.444754 0.270787 -0.006095
v 0.438776 0.298006 0.016063
v 0.435565 0.313164 0.048118
v 0.435756 0.313260 0.083721
v 0.439312 0.298273 0.115820
v 0.445529 0.271172 0.138058
v 0.453175 0.237326 0.146030
v 0.460735 0.203437 0.138157
v 0.466714 0.176218 0.115999
v 0.469925 0.161060 0.083944
v 0.469734 0.160964 0.048341
v 0.466178 0.175951 0.016242
v 0.459961 0.203052 -0.005995
v 0.452315 0.236898 -0.013967
v 0.929807 0.257054 -0.009338
v 0.937669 0.283863 0.012731
v 0.942181 0.298793 0.044737
v 0.942450 0.298886 0.080339
v 0.938424 0.284124 0.112487
v 0.930899 0.257430 0.134812
v 0.921365 0.224093 0.142894
v 0.911712 0.190714 0.135131
v 0.903851 0.163904 0.113062
v 0.899339 0.148975 0.081056
v 0.899069 0.148882 0.045454
v 0.903096 0.163644 0.013307
v 0.910621 0.190338 -0.009019
v 0.920154 0.223675 -0.017101
v 1.562134 -0.114241 -0.013738
v 1.580012 -0.092702 0.008263
v 1.590103 -0.080708 0.040231
v 1.590408 -0.080634 0.075833
v 1.580866 -0.092494 0.108018
v 1.563368 -0.113940 0.130412
v 1.541379 -0.140724 0.138579
v 1.519255 -0.167542 0.130901
v 1.501377 -0.189080 0.108900
v 1.491286 -0.201075 0.076933
v 1.490981 -0.201149 0.041331
v 1.500523 -0.189289 0.009146
v 1.518021 -0.167842 -0.013248
v 1.540009 -0.141058 -0.021415
v -1.733627 0.178067 0.036524
v -1.726349 0.185617 0.044946
v -1.722346 0.189807 0.057083
v -1.722411 0.189807 0.070532
v -1.726532 0.185617 0.082630
v -1.733892 0.178067 0.090979
v -1.743033 0.168652 0.093928
v -1.752145 0.159238 0.090891
v -1.759423 0.151688 0.082469
v -1.763426 0.147498 0.070332
v -1.763361 0.147498 0.056883
v -1.759240 0.151688 0.044785
v -1.751880 0.159238 0.036435
v -1.742739 0.168652 0.033487
v -1.816127 0.238303 0.039714
v -1.808849 0.245852 0.048135
v -1.804847 0.250042 0.060273
v -1.804912 0.250042 0.073722
v -1.809033 0.245852 0.085820
v -1.816393 0.238303 0.094169
v -1.825534 0.228888 0.097118
v -1.834646 0.219473 0.094081
v -1.841924 0.211924 0.085659
v -1.845927 0.207734 0.073522
v -1.845861 0.207734 0.060073
v -1.841741 0.211924 0.047975
v -1.834381 0.219473 0.039625
v -1.825240 0.228888 0.036677
v 1.550298 -0.128953 0.026187
v 1.558307 -0.119305 0.036042
v 1.562827 -0.113932 0.050362
v 1.562963 -0.113899 0.066309
v 1.558689 -0.119212 0.080726
v 1.550851 -0.128819 0.090758
v 1.541001 -0.140817 0.094416
v 1.531091 -0.152829 0.090977
v 1.523082 -0.162477 0.081122
v 1.518562 -0.167850 0.066802
v 1.518426 -0.167883 0.050854
v 1.522700 -0.162571 0.036437
v 1.530538 -0.152964 0.026406
v 1.540388 -0.140966 0.022748
v 1.653462 -0.190453 0.022249
v 1.661470 -0.180805 0.032105
v 1.665990 -0.175432 0.046424
v 1.666127 -0.175399 0.062372
v 1.661853 -0.180712 0.076789
v 1.654015 -0.190318 0.086820
v 1.644165 -0.202316 0.090479
v 1.634255 -0.214329 0.087040
v 1.626246 -0.223977 0.077184
v 1.621726 -0.229350 0.062865
v 1.621590 -0.229383 0.046917
v 1.625864 -0.224070 0.032500
v 1.633702 -0.214464 0.022469
v 1.643551 -0.202466 0.018810
vn -0.2727 0.6940 -0.6664
vn -0.1135 0.8840 -0.4535
vn -0.0285 0.9867 -0.1603
vn -0.0300 0.9867 0.1601
vn -0.1178 0.8840 0.4524
vn -0.2791 0.6939 0.6638
vn -0.4870 0.4484 0.7495
vn -0.7019 0.1947 0.6852
vn -0.8783 -0.0140 0.4779
vn -0.9769 -0.1315 0.1684
vn -0.9752 -0.1314 -0.1778
vn -0.8736 -0.0139 -0.4864
vn -0.6952 0.1948 -0.6919
vn -0.4798 0.4485 -0.7541
vn 0.1608 0.3747 -0.9131
vn 0.3002 0.7085 -0.6387
vn 0.3782 0.8972 -0.2281
vn 0.3762 0.8970 0.2322
vn 0.2947 0.7079 0.6419
vn 0.1530 0.3739 0.9148
vn -0.0171 -0.0314 0.9994
vn -0.1809 -0.4252 0.8868
vn -0.3079 -0.7334 0.6061
vn -0.3762 -0.9016 0.2137
vn -0.3744 -0.9014 -0.2175
vn -0.3028 -0.7329 -0.6092
vn -0.1734 -0.4245 -0.8887
vn -0.0086 -0.0306 -0.9995
vn -0.0466 0.3980 -0.9162
vn -0.0923 0.7599 -0.6435
vn -0.1194 0.9655 -0.2314
vn -0.1205 0.9651 0.2325
vn -0.0953 0.7588 0.6443
vn -0.0509 0.3967 0.9166
vn 0.0023 -0.0399 0.9992
vn 0.0534 -0.4617 0.8854
vn 0.0934 -0.7906 0.6051
vn 0.1158 -0.9699 0.2143
vn 0.1168 -0.9696 -0.2148
vn 0.0963 -0.7900 -0.6055
vn 0.0575 -0.4606 -0.8857
vn 0.0070 -0.0385 -0.9992
vn -0.2077 0.3667 -0.9069
vn -0.3827 0.6750 -0.6308
vn -0.4807 0.8474 -0.2257
vn -0.4805 0.8474 0.2261
vn -0.3822 0.6751 0.6310
vn -0.2070 0.3669 0.9069
vn 0.0078 -0.0135 0.9999
vn 0.2186 -0.3894 0.8948
vn 0.3848 -0.6876 0.6158
vn 0.4758 -0.8518 0.2192
vn 0.4757 -0.8520 -0.2188
vn 0.3846 -0.6879 -0.6155
vn 0.2182 -0.3898 -0.8947
vn 0.0072 -0.0138 -0.9999
vn -0.2324 0.3771 -0.8965
vn -0.4094 0.6713 -0.6178
vn -0.5060 0.8341 -0.2198
vn -0.5047 0.8347 0.2202
vn -0.4059 0.6732 0.6181
vn -0.2274 0.3799 0.8967
vn -0.0028 0.0109 0.9999
vn 0.2241 -0.3615 0.9050
vn 0.4074 -0.6625 0.6286
vn 0.5090 -0.8308 0.2249
vn 0.5079 -0.8316 -0.2247
vn 0.4041 -0.6647 -0.6284
vn 0.2192 -0.3645 -0.9050
vn -0.0083 0.0076 -0.9999
vn -0.1050 0.4480 -0.8878
vn -0.1755 0.7742 -0.6082
vn -0.2128 0.9528 -0.2166
vn -0.2105 0.9539 0.2141
vn -0.1690 0.7772 0.6061
vn -0.0954 0.4526 0.8866
vn -0.0022 0.0370 0.9993
vn 0.0937 -0.3918 0.9153
vn 0.1728 -0.7464 0.6426
vn 0.2168 -0.9482 0.2323
vn 0.2144 -0.9495 -0.2292
vn 0.1660 -0.7500 -0.6402
vn 0.0840 -0.3968 -0.9140
vn -0.0129 0.0317 -0.9994
vn 0.1206 0.4416 -0.8891
vn 0.2144 0.7625 -0.6104
vn 0.2674 0.9382 -0.2196
vn 0.2707 0.9393 0.2109
vn 0.2236 0.7656 0.6033
vn 0.1340 0.4462 0.8849
vn 0.0173 0.0368 0.9992
vn -0.1048 -0.3858 0.9166
vn -0.2076 -0.7354 0.6450
vn -0.2681 -0.9342 0.2353
vn -0.2716 -0.9355 -0.2261
vn -0.2174 -0.7389 -0.6378
vn -0.1187 -0.3907 -0.9128
vn 0.0022 0.0316 -0.9995
vn 0.7053 -0.1341 -0.6961
vn 0.8659 0.0916 -0.4917
vn 0.9584 0.2193 -0.1825
vn 0.9614 0.2201 0.1653
vn 0.8742 0.0938 0.4765
vn 0.7170 -0.1311 0.6846
vn 0.5257 -0.4042 0.7485
vn 0.3411 -0.6675 0.6619
vn 0.1984 -0.8704 0.4507
vn 0.1204 -0.9797 0.1601
vn 0.1178 -0.9804 -0.1580
vn 0.1908 -0.8723 -0.4503
vn 0.3299 -0.6703 -0.6647
vn 0.5130 -0.4075 -0.7555
vn -0.3733 0.7468 -0.5504
vn -0.2449 0.8958 -0.3709
vn -0.1733 0.9758 -0.1334
vn -0.1668 0.9777 0.1275
vn -0.2286 0.8984 0.3749
vn -0.3558 0.7431 0.5668
vn -0.5327 0.5316 0.6585
vn -0.7271 0.3031 0.6160
vn -0.8937 0.1108 0.4348
vn -0.9885 0.0049 0.1509
vn -0.9860 0.0140 -0.1660
vn -0.8894 0.1331 -0.4373
vn -0.7279 0.3271 -0.6026
vn -0.5431 0.5468 -0.6372
vn -0.2843 0.6997 -0.6555
vn -0.1240 0.8864 -0.4459
vn -0.0342 0.9872 -0.1560
vn -0.0289 0.9861 0.1639
vn -0.1108 0.8814 0.4591
vn -0.2693 0.6879 0.6740
vn -0.4779 0.4389 0.7609
vn -0.6953 0.1840 0.6948
vn -0.8745 -0.0224 0.4844
vn -0.9757 -0.1350 0.1726
vn -0.9763 -0.1291 -0.1738
vn -0.8771 -0.0066 -0.4803
vn -0.7016 0.2045 -0.6826
vn -0.4893 0.4574 -0.7425
vn 0.7406 -0.2467 -0.6250
vn 0.8929 -0.0380 -0.4487
vn 0.9829 0.0796 -0.1662
vn 0.9855 0.0733 0.1532
vn 0.9018 -0.0530 0.4289
vn 0.7577 -0.2617 0.5978
vn 0.5915 -0.4986 0.6336
vn 0.4386 -0.7135 0.5464
vn 0.3231 -0.8724 0.3668
vn 0.2582 -0.9572 0.1306
vn 0.2502 -0.9597 -0.1278
vn 0.3021 -0.8772 -0.3733
vn 0.4117 -0.7144 -0.5658
vn 0.5669 -0.4909 -0.6615
vn 0.6998 -0.1283 -0.7027
vn 0.8632 0.0947 -0.4959
vn 0.9581 0.2181 -0.1855
vn 0.9632 0.2146 0.1619
vn 0.8779 0.0853 0.4711
vn 0.7227 -0.1400 0.6768
vn 0.5330 -0.4112 0.7395
vn 0.3487 -0.6713 0.6541
vn 0.2038 -0.8717 0.4456
vn 0.1214 -0.9801 0.1572
vn 0.1134 -0.9804 -0.1612
vn 0.1825 -0.8709 -0.4562
vn 0.3205 -0.6665 -0.6731
vn 0.5049 -0.4015 -0.7641
vt 0.142857 1.000000
vt 0.000000 0.928571
vt 0.000000 1.000000
vt 0.142857 0.071429
vt 0.000000 0.000000
vt 0.000000 0.071429
vt 0.142857 0.142857
vt 0.000000 0.142857
vt 0.000000 0.214286
vt 0.000000 0.285714
vt 0.142857 0.214286
vt 0.000000 0.357143
vt 0.142857 0.285714
vt 0.000000 0.428571
vt 0.142857 0.357143
vt 0.000000 0.500000
vt 0.142857 0.428571
vt 0.000000 0.571429
vt 0.142857 0.500000
vt 0.000000 0.642857
vt 0.142857 0.571429
vt 0.142857 0.714286
vt 0.000000 0.714286
vt 0.142857 0.785714
vt 0.000000 0.785714
vt 0.142857 0.857143
vt 0.000000 0.857143
vt 0.142857 0.928571
vt 0.285714 1.000000
vt 0.285714 0.071429
vt 0.142857 0.000000
vt 0.285714 0.142857
vt 0.285714 0.214286
vt 0.285714 0.285714
vt 0.285714 0.357143
vt 0.285714 0.428571
vt 0.285714 0.500000
vt 0.142857 0.642857
vt 0.285714 0.571429
vt 0.285714 0.714286
vt 0.285714 0.785714
vt 0.285714 0.857143
vt 0.285714 0.928571
vt 0.428571 0.928571
vt 0.428571 0.000000
vt 0.285714 0.000000
vt 0.428571 0.071429
vt 0.428571 0.142857
vt 0.428571 0.285714
vt 0.428571 0.357143
vt 0.428571 0.428571
vt 0.428571 0.500000
vt 0.428571 0.571429
vt 0.428571 0.642857
vt 0.285714 0.642857
vt 0.428571 0.714286
vt 0.428571 0.785714
vt 0.428571 0.857143
vt 0.428571 1.000000
vt 0.571429 0.928571
vt 0.571429 0.000000
vt 0.571429 0.071429
vt 0.571429 0.214286
vt 0.428571 0.214286
vt 0.571429 0.285714
vt 0.571429 0.357143
vt 0.571429 0.428571
vt 0.571429 0.500000
vt 0.571429 0.571429
vt 0.571429 0.642857
vt 0.571429 0.714286
vt 0.571429 0.785714
vt 0.571429 0.857143
vt 0.571429 1.000000
vt 0.714286 0.928571
vt 0.714286 0.000000
vt 0.571429 0.142857
vt 0.714286 0.071429
vt 0.714286 0.214286
vt 0.714286 0.285714
vt 0.714286 0.357143
vt 0.714286 0.428571
vt 0.714286 0.500000
vt 0.714286 0.571429
vt 0.714286 0.642857
vt 0.714286 0.714286
vt 0.714286 0.785714
vt 0.714286 0.857143
vt 0.714286 1.000000
vt 0.857143 0.928571
vt 0.857143 0.000000
vt 0.714286 0.142857
vt 0.857143 0.071429
vt 0.857143 0.214286
vt 0.857143 0.285714
vt 0.857143 0.357143
vt 0.857143 0.428571
vt 0.857143 0.500000
vt 0.857143 0.571429
vt 0.857143 0.642857
vt 0.857143 0.714286
vt 0.857143 0.785714
vt 0.857143 0.857143
vt 1.000000 1.000000
vt 0.857143 1.000000
vt 1.000000 0.071429
vt 1.000000 0.142857
vt 0.857143 0.142857
vt 1.000000 0.214286
vt 1.000000 0.285714
vt 1.000000 0.357143
vt 1.000000 0.428571
vt 1.000000 0.500000
vt 1.000000 0.571429
vt 1.000000 0.642857
vt 1.000000 0.785714
vt 1.000000 0.857143
vt 1.000000 0.928571
vt 1.000000 0.714286
vt 1.000000 0.000000
s 1
f 15/1/15 14/2/14 1/3/1
f 16/4/16 1/5/1 2/6/2
f 17/7/17 2/6/2 3/8/3
f 4/9/4 17/7/17 3/8/3
f 5/10/5 18/11/18 4/9/4
f 6/12/6 19/13/19 5/10/5
f 7/14/7 20/15/20 6/12/6
f 8/16/8 21/17/21 7/14/7
f 9/18/9 22/19/22 8/16/8
f 10/20/10 23/21/23 9/18/9
f 25/22/25 10/20/10 11/23/11
f 26/24/26 11/23/11 12/25/12
f 27/26/27 12/25/12 13/27/13
f 28/28/28 13/27/13 14/2/14
f 29/29/29 28/28/28 15/1/15
f 30/30/30 15/31/15 16/4/16
f 31/32/31 16/4/16 17/7/17
f 18/11/18 31/32/31 17/7/17
f 19/13/19 32/33/32 18/11/18
f 20/15/20 33/34/33 19/13/19
f 21/17/21 34/35/34 20/15/20
f 22/19/22 35/36/35 21/17/21
f 23/21/23 36/37/36 22/19/22
f 24/38/24 37/39/37 23/21/23
f 39/40/39 24/38/24 25/22/25
f 40/41/40 25/22/25 26/24/26
f 41/42/41 26/24/26 27/26/27
f 42/43/42 27/26/27 28/28/28
f 29/29/29 56/44/56 42/43/42
f 30/30/30 43/45/43 29/46/29
f 31/32/31 44/47/44 30/30/30
f 32/33/32 45/48/45 31/32/31
f 47/49/47 32/33/32 33/34/33
f 48/50/48 33/34/33 34/35/34
f 49/51/49 34/35/34 35/36/35
f 50/52/50 35/36/35 36/37/36
f 51/53/51 36/37/36 37/39/37
f 52/54/52 37/39/37 38/55/38
f 53/56/53 38/55/38 39/40/39
f 40/41/40 53/56/53 39/40/39
f 41/42/41 54/57/54 40/41/40
f 42/43/42 55/58/55 41/42/41
f 43/59/43 70/60/70 56/44/56
f 44/47/44 57/61/57 43/45/43
f 45/48/45 58/62/58 44/47/44
f 60/63/60 45/48/45 46/64/46
f 61/65/61 46/64/46 47/49/47
f 62/66/62 47/49/47 48/50/48
f 63/67/63 48/50/48 49/51/49
f 64/68/64 49/51/49 50/52/50
f 65/69/65 50/52/50 51/53/51
f 66/70/66 51/53/51 52/54/52
f 53/56/53 66/70/66 52/54/52
f 54/57/54 67/71/67 53/56/53
f 55/58/55 68/72/68 54/57/54
f 56/44/56 69/73/69 55/58/55
f 57/74/57 84/75/84 70/60/70
f 58/62/58 71/76/71 57/61/57
f 59/77/59 72/78/72 58/62/58
f 74/79/74 59/77/59 60/63/60
f 75/80/75 60/63/60 61/65/61
f 76/81/76 61/65/61 62/66/62
f 77/82/77 62/66/62 63/67/63
f 78/83/78 63/67/63 64/68/64
f 79/84/79 64/68/64 65/69/65
f 80/85/80 65/69/65 66/70/66
f 67/71/67 80/85/80 66/70/66
f 68/72/68 81/86/81 67/71/67
f 69/73/69 82/87/82 68/72/68
f 70/60/70 83/88/83 69/73/69
f 71/89/71 98/90/98 84/75/84
f 72/78/72 85/91/85 71/76/71
f 73/92/73 86/93/86 72/78/72
f 88/94/88 73/92/73 74/79/74
f 89/95/89 74/79/74 75/80/75
f 90/96/90 75/80/75 76/81/76
f 91/97/91 76/81/76 77/82/77
f 92/98/92 77/82/77 78/83/78
f 93/99/93 78/83/78 79/84/79
f 94/100/94 79/84/79 80/85/80
f 81/86/81 94/100/94 80/85/80
f 82/87/82 95/101/95 81/86/81
f 83/88/83 96/102/96 82/87/82
f 84/75/84 97/103/97 83/88/83
f 99/104/99 98/90/98 85/105/85
f 100/106/100 85/91/85 86/93/86
f 101/107/101 86/93/86 87/108/87
f 102/109/102 87/108/87 88/94/88
f 89/95/89 102/109/102 88/94/88
f 90/96/90 103/110/103 89/95/89
f 91/97/91 104/111/104 90/96/90
f 92/98/92 105/112/105 91/97/91
f 93/99/93 106/113/106 92/98/92
f 94/100/94 107/114/107 93/99/93
f 95/101/95 108/115/108 94/100/94
f 110/116/110 95/101/95 96/102/96
f 111/117/111 96/102/96 97/103/97
f 112/118/112 97/103/97 98/90/98
f 12/25/12 123/23/123 124/25/124
f 3/8/3 114/6/114 115/8/115
f 1/3/1 126/2/126 113/3/113
f 4/9/4 117/10/117 5/10/5
f 1/5/1 114/6/114 2/6/2
f 7/14/7 118/12/118 119/14/119
f 3/8/3 116/9/116 4/9/4
f 9/18/9 120/16/120 121/18/121
f 10/20/10 123/23/123 11/23/11
f 6/12/6 117/10/117 118/12/118
f 13/27/13 126/2/126 14/2/14
f 12/25/12 125/27/125 13/27/13
f 8/16/8 119/14/119 120/16/120
f 10/20/10 121/18/121 122/20/122
f 118/12/118 131/10/131 132/12/132
f 119/14/119 132/12/132 133/14/133
f 120/16/120 133/14/133 134/16/134
f 121/18/121 134/16/134 135/18/135
f 122/20/122 135/18/135 136/20/136
f 122/20/122 137/23/137 123/23/123
f 123/23/123 138/25/138 124/25/124
f 124/25/124 139/27/139 125/27/125
f 126/2/126 127/3/127 113/3/113
f 125/27/125 140/2/140 126/2/126
f 113/5/113 128/6/128 114/6/114
f 114/6/114 129/8/129 115/8/115
f 116/9/116 129/8/129 130/9/130
f 117/10/117 130/9/130 131/10/131
f 138/25/138 134/16/134 130/9/130
f 101/107/101 144/109/144 143/107/143
f 104/111/104 147/112/147 146/111/146
f 109/119/109 152/116/152 151/119/151
f 104/111/104 145/110/145 103/110/103
f 106/113/106 149/114/149 148/113/148
f 99/104/99 154/118/154 112/118/112
f 112/118/112 153/117/153 111/117/111
f 100/106/100 143/107/143 142/106/142
f 105/112/105 148/113/148 147/112/147
f 109/119/109 150/115/150 108/115/108
f 99/120/99 142/106/142 141/120/141
f 102/109/102 145/110/145 144/109/144
f 108/115/108 149/114/149 107/114/107
f 110/116/110 153/117/153 152/116/152
f 152/116/152 165/119/165 151/119/151
f 154/118/154 167/117/167 153/117/153
f 141/104/141 168/118/168 154/118/154
f 143/107/143 156/106/156 142/106/142
f 142/106/142 155/120/155 141/120/141
f 144/109/144 159/110/159 158/109/158
f 143/107/143 158/109/158 157/107/157
f 146/111/146 161/112/161 160/111/160
f 145/110/145 160/111/160 159/110/159
f 148/113/148 163/114/163 162/113/162
f 147/112/147 162/113/162 161/112/161
f 151/119/151 164/115/164 150/115/150
f 149/114/149 164/115/164 163/114/163
f 153/117/153 166/116/166 152/116/152
f 158/109/158 162/113/162 166/116/166
f 15/1/15 28/28/28 14/2/14
f 16/4/16 15/31/15 1/5/1
f 17/7/17 16/4/16 2/6/2
f 4/9/4 18/11/18 17/7/17
f 5/10/5 19/13/19 18/11/18
f 6/12/6 20/15/20 19/13/19
f 7/14/7 21/17/21 20/15/20
f 8/16/8 22/19/22 21/17/21
f 9/18/9 23/21/23 22/19/22
f 10/20/10 24/38/24 23/21/23
f 25/22/25 24/38/24 10/20/10
f 26/24/26 25/22/25 11/23/11
f 27/26/27 26/24/26 12/25/12
f 28/28/28 27/26/27 13/27/13
f 29/29/29 42/43/42 28/28/28
f 30/30/30 29/46/29 15/31/15
f 31/32/31 30/30/30 16/4/16
f 18/11/18 32/33/32 31/32/31
f 19/13/19 33/34/33 32/33/32
f 20/15/20 34/35/34 33/34/33
f 21/17/21 35/36/35 34/35/34
f 22/19/22 36/37/36 35/36/35
f 23/21/23 37/39/37 36/37/36
f 24/38/24 38/55/38 37/39/37
f 39/40/39 38/55/38 24/38/24
f 40/41/40 39/40/39 25/22/25
f 41/42/41 40/41/40 26/24/26
f 42/43/42 41/42/41 27/26/27
f 29/29/29 43/59/43 56/44/56
f 30/30/30 44/47/44 43/45/43
f 31/32/31 45/48/45 44/47/44
f 32/33/32 46/64/46 45/48/45
f 47/49/47 46/64/46 32/33/32
f 48/50/48 47/49/47 33/34/33
f 49/51/49 48/50/48 34/35/34
f 50/52/50 49/51/49 35/36/35
f 51/53/51 50/52/50 36/37/36
f 52/54/52 51/53/51 37/39/37
f 53/56/53 52/54/52 38/55/38
f 40/41/40 54/57/54 53/56/53
f 41/42/41 55/58/55 54/57/54
f 42/43/42 56/44/56 55/58/55
f 43/59/43 57/74/57 70/60/70
f 44/47/44 58/62/58 57/61/57
f 45/48/45 59/77/59 58/62/58
f 60/63/60 59/77/59 45/48/45
f 61/65/61 60/63/60 46/64/46
f 62/66/62 61/65/61 47/49/47
f 63/67/63 62/66/62 48/50/48
f 64/68/64 63/67/63 49/51/49
f 65/69/65 64/68/64 50/52/50
f 66/70/66 65/69/65 51/53/51
f 53/56/53 67/71/67 66/70/66
f 54/57/54 68/72/68 67/71/67
f 55/58/55 69/73/69 68/72/68
f 56/44/56 70/60/70 69/73/69
f 57/74/57 71/89/71 84/75/84
f 58/62/58 72/78/72 71/76/71
f 59/77/59 73/92/73 72/78/72
f 74/79/74 73/92/73 59/77/59
f 75/80/75 74/79/74 60/63/60
f 76/81/76 75/80/75 61/65/61
f 77/82/77 76/81/76 62/66/62
f 78/83/78 77/82/77 63/67/63
f 79/84/79 78/83/78 64/68/64
f 80/85/80 79/84/79 65/69/65
f 67/71/67 81/86/81 80/85/80
f 68/72/68 82/87/82 81/86/81
f 69/73/69 83/88/83 82/87/82
f 70/60/70 84/75/84 83/88/83
f 71/89/71 85/105/85 98/90/98
f 72/78/72 86/93/86 85/91/85
f 73/92/73 87/108/87 86/93/86
f 88/94/88 87/108/87 73/92/73
f 89/95/89 88/94/88 74/79/74
f 90/96/90 89/95/89 75/80/75
f 91/97/91 90/96/90 76/81/76
f 92/98/92 91/97/91 77/82/77
f 93/99/93 92/98/92 78/83/78
f 94/100/94 93/99/93 79/84/79
f 81/86/81 95/101/95 94/100/94
f 82/87/82 96/102/96 95/101/95
f 83/88/83 97/103/97 96/102/96
f 84/75/84 98/90/98 97/103/97
f 99/104/99 112/118/112 98/90/98
f 100/106/100 99/120/99 85/91/85
f 101/107/101 100/106/100 86/93/86
f 102/109/102 101/107/101 87/108/87
f 89/95/89 103/110/103 102/109/102
f 90/96/90 104/111/104 103/110/103
f 91/97/91 105/112/105 104/111/104
f 92/98/92 106/113/106 105/112/105
f 93/99/93 107/114/107 106/113/106
f 94/100/94 108/115/108 107/114/107
f 95/101/95 109/119/109 108/115/108
f 110/116/110 109/119/109 95/101/95
f 111/117/111 110/116/110 96/102/96
f 112/118/112 111/117/111 97/103/97
f 12/25/12 11/23/11 123/23/123
f 3/8/3 2/6/2 114/6/114
f 1/3/1 14/2/14 126/2/126
f 4/9/4 116/9/116 117/10/117
f 1/5/1 113/5/113 114/6/114
f 7/14/7 6/12/6 118/12/118
f 3/8/3 115/8/115 116/9/116
f 9/18/9 8/16/8 120/16/120
f 10/20/10 122/20/122 123/23/123
f 6/12/6 5/10/5 117/10/117
f 13/27/13 125/27/125 126/2/126
f 12/25/12 124/25/124 125/27/125
f 8/16/8 7/14/7 119/14/119
f 10/20/10 9/18/9 121/18/121
f 118/12/118 117/10/117 131/10/131
f 119/14/119 118/12/118 132/12/132
f 120/16/120 119/14/119 133/14/133
f 121/18/121 120/16/120 134/16/134
f 122/20/122 121/18/121 135/18/135
f 122/20/122 136/20/136 137/23/137
f 123/23/123 137/23/137 138/25/138
f 124/25/124 138/25/138 139/27/139
f 126/2/126 140/2/140 127/3/127
f 125/27/125 139/27/139 140/2/140
f 113/5/113 127/5/127 128/6/128
f 114/6/114 128/6/128 129/8/129
f 116/9/116 115/8/115 129/8/129
f 117/10/117 116/9/116 130/9/130
f 128/6/128 127/3/127 140/2/140
f 140/2/140 139/27/139 138/25/138
f 138/25/138 137/23/137 136/20/136
f 136/20/136 135/18/135 134/16/134
f 134/16/134 133/14/133 132/12/132
f 132/12/132 131/10/131 130/9/130
f 130/9/130 129/8/129 128/6/128
f 128/6/128 140/2/140 138/25/138
f 138/25/138 136/20/136 134/16/134
f 134/16/134 132/12/132 130/9/130
f 130/9/130 128/6/128 138/25/138
f 101/107/101 102/109/102 144/109/144
f 104/111/104 105/112/105 147/112/147
f 109/119/109 110/116/110 152/116/152
f 104/111/104 146/111/146 145/110/145
f 106/113/106 107/114/107 149/114/149
f 99/104/99 141/104/141 154/118/154
f 112/118/112 154/118/154 153/117/153
f 100/106/100 101/107/101 143/107/143
f 105/112/105 106/113/106 148/113/148
f 109/119/109 151/119/151 150/115/150
f 99/120/99 100/106/100 142/106/142
f 102/109/102 103/110/103 145/110/145
f 108/115/108 150/115/150 149/114/149
f 110/116/110 111/117/111 153/117/153
f 152/116/152 166/116/166 165/119/165
f 154/118/154 168/118/168 167/117/167
f 141/104/141 155/104/155 168/118/168
f 143/107/143 157/107/157 156/106/156
f 142/106/142 156/106/156 155/120/155
f 144/109/144 145/110/145 159/110/159
f 143/107/143 144/109/144 158/109/158
f 146/111/146 147/112/147 161/112/161
f 145/110/145 146/111/146 160/111/160
f 148/113/148 149/114/149 163/114/163
f 147/112/147 148/113/148 162/113/162
f 151/119/151 165/119/165 164/115/164
f 149/114/149 150/115/150 164/115/164
f 153/117/153 167/117/167 166/116/166
f 168/118/168 155/104/155 156/106/156
f 156/106/156 157/107/157 158/109/158
f 158/109/158 159/110/159 160/111/160
f 160/111/160 161/112/161 162/113/162
f 162/113/162 163/114/163 164/115/164
f 164/115/164 165/119/165 166/116/166
f 166/116/166 167/117/167 168/118/168
f 168/118/168 156/106/156 158/109/158
f 158/109/158 160/111/160 162/113/162
f 162/113/162 164/115/164 166/116/166
f 166/116/166 168/118/168 158/109/158
