# Blender 4.1.1
# www.blender.org
mtllib Arrow.mtl
o Cube
v 0.303259 8.589024 0.145741
v -0.000001 8.118657 0.145740
v 0.303259 8.589024 -0.145740
v -0.000001 8.118657 -0.145741
v -0.000001 12.201618 0.014750
v -0.303261 8.589024 0.145741
v -0.000001 12.201618 -0.014750
v -0.303261 8.589024 -0.145741
v 1.085922 9.407694 0.145741
v -0.000001 7.090042 0.053857
v 1.085922 9.407694 -0.145740
v -0.000001 7.090042 -0.053858
v -1.085923 9.407693 0.145741
v -1.085923 9.407694 -0.145740
v -0.000001 7.770315 -0.145741
v -0.546210 8.763195 -0.145741
v 0.546209 8.763195 -0.145740
v -0.000001 7.770315 0.145740
v 0.546209 8.763194 0.145741
v -0.546210 8.763195 0.145741
v 0.157140 8.589024 0.206920
v -0.000001 8.118657 0.206920
v 0.157140 8.589024 -0.184093
v -0.000001 8.118657 -0.184093
v -0.157141 8.589024 0.206920
v -0.157141 8.589024 -0.275402
v -0.000001 7.770315 -0.184093
v -0.283030 8.763195 -0.275402
v 0.283029 8.763195 -0.275402
v -0.000001 7.770315 0.206920
v 0.283029 8.763194 0.275402
v -0.283030 8.763194 0.275402
vn 0.2364 -0.1301 -0.9629
vn -0.0000 0.0362 -0.9993
vn -0.9965 0.0837 -0.0000
vn -0.0000 0.0362 0.9993
vn 0.9965 0.0837 -0.0000
vn -0.1064 -0.0891 -0.9903
vn 0.9055 -0.4243 -0.0000
vn -0.9055 -0.4243 -0.0000
vn 0.1064 -0.0891 0.9903
vn 0.7667 0.6420 -0.0000
vn -0.2364 -0.1301 0.9629
vn -0.7667 0.6420 -0.0000
vn -0.8762 -0.4820 -0.0000
vn -0.9485 0.3169 -0.0000
vn -0.0000 1.0000 -0.0000
vn 0.8762 -0.4820 -0.0000
vn 0.6231 0.3445 0.7022
vn -0.8105 0.5858 -0.0000
vn 0.2352 -0.0000 0.9720
vn 0.8105 0.5858 -0.0000
vn -0.6919 0.2311 0.6840
vn -0.2034 -0.1470 -0.9680
vn -0.3070 -0.0000 -0.9517
vn -0.0000 -1.0000 -0.0000
vn -0.4343 -0.1846 0.8816
vn 0.9485 0.3169 -0.0000
vn 0.4326 -0.2041 -0.8782
vn -0.3748 0.2416 -0.8951
vn 0.1064 -0.0891 -0.9903
vn -0.0000 -0.0000 -1.0000
vn -0.0000 -0.0000 1.0000
vn -0.2364 -0.1301 -0.9629
vn 0.2364 -0.1301 0.9629
vn -0.1064 -0.0891 0.9903
vn -0.4326 -0.2041 -0.8782
vn -0.2505 0.1615 0.9545
vn 0.4343 -0.1846 0.8816
vn 0.8405 0.5419 -0.0000
vn 0.6919 0.2311 0.6840
vn -0.2352 -0.0000 0.9720
vn 0.5024 -0.0000 -0.8646
vn -0.7758 0.2592 -0.5752
vn 0.3748 0.2416 -0.8951
vt 0.375000 0.250000
vt 0.625000 0.250000
vt 0.375000 0.250000
vt 0.625000 0.500000
vt 0.375000 0.500000
vt 0.625000 0.750000
vt 0.375000 0.750000
vt 0.375000 1.000000
vt 0.125000 0.750000
vt 0.125000 0.500000
vt 0.625000 0.000000
vt 0.375000 0.000000
vt 0.875000 0.750000
vt 0.375000 1.000000
vt 0.625000 1.000000
vt 0.625000 0.750000
vt 0.625000 1.000000
vt 0.875000 0.500000
s 0
f 17/1/1 12/2/1 15/2/1
f 3/3/2 8/4/2 7/5/2
f 7/5/3 6/6/3 5/7/3
f 6/6/4 1/8/4 5/7/4
f 7/5/5 1/9/5 3/10/5
f 16/4/6 12/2/6 14/4/6
f 10/11/7 11/3/7 9/12/7
f 14/4/8 10/13/8 13/6/8
f 19/14/9 10/15/9 9/8/9
f 16/4/10 13/6/10 20/16/10
f 20/16/11 10/15/11 18/17/11
f 19/9/12 11/10/12 17/10/12
f 16/4/13 27/2/13 15/2/13
f 4/2/14 23/3/14 24/2/14
f 19/9/15 29/10/15 31/9/15
f 19/14/16 30/17/16 18/17/16
f 8/4/17 24/2/17 26/4/17
f 16/4/15 32/16/15 28/4/15
f 23/10/18 31/9/18 29/10/18
f 22/15/19 32/16/19 30/17/19
f 25/6/20 28/4/20 32/16/20
f 22/15/21 31/14/21 21/8/21
f 26/4/22 27/2/22 28/4/22
f 24/2/23 29/1/23 27/2/23
f 1/9/24 23/10/24 3/10/24
f 20/16/25 30/17/25 32/16/25
f 2/15/26 25/6/26 22/15/26
f 17/1/27 27/2/27 29/1/27
f 2/15/28 21/8/28 1/8/28
f 8/4/24 25/6/24 6/6/24
f 17/1/29 11/3/29 12/2/29
f 3/3/30 4/2/30 8/4/30
f 7/5/3 8/4/3 6/6/3
f 6/6/31 2/15/31 1/8/31
f 7/5/5 5/7/5 1/9/5
f 16/4/32 15/2/32 12/2/32
f 10/11/7 12/2/7 11/3/7
f 14/4/8 12/18/8 10/13/8
f 19/14/33 18/17/33 10/15/33
f 16/4/10 14/4/10 13/6/10
f 20/16/34 13/6/34 10/15/34
f 19/9/12 9/9/12 11/10/12
f 16/4/35 28/4/35 27/2/35
f 4/2/36 3/3/36 23/3/36
f 19/9/15 17/10/15 29/10/15
f 19/14/37 31/14/37 30/17/37
f 8/4/38 4/2/38 24/2/38
f 16/4/15 20/16/15 32/16/15
f 23/10/18 21/9/18 31/9/18
f 22/15/39 25/6/39 32/16/39
f 25/6/20 26/4/20 28/4/20
f 22/15/40 30/17/40 31/14/40
f 26/4/41 24/2/41 27/2/41
f 24/2/42 23/3/42 29/1/42
f 1/9/24 21/9/24 23/10/24
f 20/16/13 18/17/13 30/17/13
f 2/15/43 6/6/43 25/6/43
f 17/1/16 15/2/16 27/2/16
f 2/15/14 22/15/14 21/8/14
f 8/4/24 26/4/24 25/6/24
