# Blender 4.1.1
# www.blender.org
mtllib NextLevel_3.mtl
o Torus.002
v 1.910613 2.033692 -0.149476
v 1.447490 2.301903 -0.113027
v 1.447490 1.765481 -0.113027
v 0.456089 2.033692 -1.852506
v 0.347640 2.301903 -1.400787
v 0.347640 1.765481 -1.400787
v -1.613063 2.033692 -0.995435
v -1.216965 2.301903 -0.752706
v -1.216965 1.765481 -0.752706
v -1.437344 2.033692 1.237293
v -1.084093 2.301903 0.935588
v -1.084093 1.765481 0.935588
v 0.740409 2.033692 1.760125
v 0.562631 2.301903 1.330932
v 0.562631 1.765481 1.330932
vn 0.4417 0.8140 -0.3773
vn -0.7604 -0.0000 0.6494
vn 0.4417 -0.8140 -0.3773
vn -0.2223 0.8140 -0.5367
vn 0.3827 -0.0000 0.9239
vn -0.2223 -0.8140 -0.5367
vn -0.5791 0.8140 0.0456
vn 0.9969 -0.0000 -0.0785
vn -0.5791 -0.8140 0.0456
vn -0.1356 0.8140 0.5648
vn 0.2334 -0.0000 -0.9724
vn -0.1356 -0.8140 0.5648
vn 0.4953 0.8140 0.3035
vn -0.8526 -0.0000 -0.5225
vn 0.4953 -0.8140 0.3035
vt 0.800000 0.666667
vt 0.600000 1.000000
vt 0.600000 0.666667
vt 0.800000 0.000000
vt 0.600000 0.333333
vt 0.600000 0.000000
vt 1.000000 1.000000
vt 0.800000 1.000000
vt 1.000000 0.000000
vt 0.800000 0.333333
vt 1.000000 0.333333
vt 0.200000 0.666667
vt 0.000000 1.000000
vt 0.000000 0.666667
vt 0.200000 0.000000
vt 0.000000 0.333333
vt 0.000000 0.000000
vt 0.200000 0.333333
vt 0.400000 1.000000
vt 0.200000 1.000000
vt 0.400000 0.000000
vt 0.400000 0.666667
vt 0.400000 0.333333
vt 1.000000 0.666667
s 0
f 4/1/1 2/2/1 1/3/1
f 5/4/2 3/5/2 2/6/2
f 3/5/3 4/1/3 1/3/3
f 4/1/4 8/7/4 5/8/4
f 8/9/5 6/10/5 5/4/5
f 9/11/6 4/1/6 6/10/6
f 10/12/7 8/13/7 7/14/7
f 11/15/8 9/16/8 8/17/8
f 12/18/9 7/14/9 9/16/9
f 10/12/10 14/19/10 11/20/10
f 14/21/11 12/18/11 11/15/11
f 12/18/12 13/22/12 10/12/12
f 1/3/13 14/19/13 13/22/13
f 2/6/14 15/23/14 14/21/14
f 3/5/15 13/22/15 15/23/15
f 4/1/1 5/8/1 2/2/1
f 5/4/2 6/10/2 3/5/2
f 3/5/3 6/10/3 4/1/3
f 4/1/4 7/24/4 8/7/4
f 8/9/5 9/11/5 6/10/5
f 9/11/6 7/24/6 4/1/6
f 10/12/7 11/20/7 8/13/7
f 11/15/8 12/18/8 9/16/8
f 12/18/9 10/12/9 7/14/9
f 10/12/10 13/22/10 14/19/10
f 14/21/11 15/23/11 12/18/11
f 12/18/12 15/23/12 13/22/12
f 1/3/13 2/2/13 14/19/13
f 2/6/14 3/5/14 15/23/14
f 3/5/15 1/3/15 13/22/15
