# Blender 4.1.1
# www.blender.org
mtllib Cone.mtl
o Cone.001
v 0.000000 -2.488039 0.781659
v -0.611125 -2.488039 0.487356
v -0.762061 -2.488039 0.000000
v -0.339149 -2.488039 -0.704250
v 0.339149 -2.488039 -0.704250
v 0.762061 -2.488039 -0.000000
v 0.611125 -2.488039 0.487356
v 0.000000 -0.924721 0.000000
vn -0.3956 0.4107 0.8215
vn -0.8660 0.4221 0.2682
vn -0.7910 0.3856 -0.4750
vn -0.0000 0.4107 -0.9118
vn 0.7910 0.3856 -0.4750
vn -0.0000 -1.0000 -0.0000
vn 0.8660 0.4221 0.2682
vn 0.3956 0.4107 0.8215
vt 0.500000 0.000000
vt 0.500000 1.000000
vt 0.099031 0.000000
vt 0.000000 0.000000
vt 1.000000 0.000000
vt 0.500000 1.000000
vt 0.722521 0.000000
vt 0.277479 0.000000
vt 0.099031 0.801938
vt 0.277479 0.000000
vt 1.000000 0.473953
vt 0.900969 0.000000
vt 0.900969 0.801938
vt 0.500001 1.000000
vt 0.000000 0.473953
vt 0.722521 0.000000
s 0
f 1/1/1 8/2/1 2/3/1
f 2/3/2 8/2/2 3/4/2
f 3/5/3 8/6/3 4/7/3
f 4/7/4 8/6/4 5/8/4
f 5/8/5 8/6/5 6/4/5
f 2/9/6 4/10/6 6/11/6
f 6/5/7 8/2/7 7/12/7
f 7/12/8 8/2/8 1/1/8
f 7/13/6 1/14/6 2/9/6
f 2/9/6 3/15/6 4/10/6
f 4/10/6 5/16/6 6/11/6
f 6/11/6 7/13/6 2/9/6
