# Blender 4.1.1
# www.blender.org
mtllib doorhoriz.mtl
o Cube
v 0.164418 1.000000 1.000000
v 0.164418 -1.000000 1.000000
v -0.164418 1.000000 1.000000
v -0.164418 -1.000000 1.000000
v 0.164418 1.000000 -1.000000
v 0.164418 -1.000000 -1.000000
v -0.164418 1.000000 -1.000000
v -0.164418 -1.000000 -1.000000
vn -0.0000 1.0000 -0.0000
vn -1.0000 -0.0000 -0.0000
vn -0.0000 -0.0000 -1.0000
vn -0.0000 -1.0000 -0.0000
vn -0.0000 -0.0000 1.0000
vn 1.0000 -0.0000 -0.0000
vt 0.091278 0.140722
vt 0.068722 0.163278
vt 0.068722 0.140722
vt 1.000000 1.000000
vt 0.000000 0.000000
vt 1.000000 0.000000
vt 1.000000 1.000000
vt 1.000000 0.000000
vt 0.091278 0.163278
vt 0.000000 1.000000
s 0
usemtl Material
f 5/1/1 3/2/1 1/3/1
f 3/4/2 8/5/2 4/6/2
f 7/1/3 6/2/3 8/3/3
f 2/1/4 8/2/4 6/3/4
f 1/1/5 4/2/5 2/3/5
f 5/7/6 2/5/6 6/8/6
f 5/1/1 7/9/1 3/2/1
f 3/4/2 7/10/2 8/5/2
f 7/1/3 5/9/3 6/2/3
f 2/1/4 4/9/4 8/2/4
f 1/1/5 3/9/5 4/2/5
f 5/7/6 1/10/6 2/5/6
