# Blender 4.1.1
# www.blender.org
mtllib egoSpike.mtl
o Cube
v 4.770029 5.780728 -4.770029
v 4.770029 -3.759330 -4.770029
v 4.770029 5.780728 4.770029
v 4.770029 -3.759330 4.770029
v -4.770029 5.780728 -4.770029
v -4.770029 -3.759330 -4.770029
v -4.770029 5.780728 4.770029
v -4.770029 -3.759330 4.770029
v 1.000000 1.344032 -1.000000
v 1.000000 0.677366 -1.000000
v -1.000000 0.677366 1.000000
v -1.000000 1.344032 1.000000
v 1.000000 1.344032 1.000000
v 1.000000 0.677366 1.000000
v -1.000000 1.344032 -1.000000
v -1.000000 0.677366 -1.000000
v 0.333333 0.010699 -1.000000
v -0.333333 0.010699 -1.000000
v 0.333333 2.010699 1.000000
v -0.333333 2.010699 1.000000
v -0.333333 0.010699 1.000000
v 0.333333 0.010699 1.000000
v -0.333333 2.010699 -1.000000
v 0.333333 2.010699 -1.000000
v -0.521829 0.488870 -1.565489
v 0.521829 0.488870 -1.565489
v -0.521829 1.532529 -1.565489
v 0.521829 1.532529 -1.565489
v 0.521829 0.488870 1.565489
v -0.521829 0.488870 1.565489
v 0.521829 1.532529 1.565489
v -0.521829 1.532529 1.565489
v -1.000000 0.010699 -0.333333
v -1.000000 0.010699 0.333333
v 1.000000 2.010699 -0.333333
v 1.000000 2.010699 0.333333
v -1.000000 2.010699 0.333333
v -1.000000 2.010699 -0.333333
v 1.000000 0.010699 0.333333
v 1.000000 0.010699 -0.333333
v 1.565489 0.488870 -0.521829
v 1.565489 0.488870 0.521829
v 1.565489 1.532529 -0.521829
v 1.565489 1.532529 0.521829
v -1.565489 0.488870 0.521829
v -1.565489 0.488870 -0.521829
v -1.565489 1.532529 0.521829
v -1.565489 1.532529 -0.521829
v -0.521829 -0.554789 -0.521829
v -0.521829 -0.554789 0.521829
v 0.521829 -0.554789 -0.521829
v 0.521829 -0.554789 0.521829
v 0.521829 2.576188 -0.521829
v 0.521829 2.576188 0.521829
v -0.521829 2.576188 -0.521829
v -0.521829 2.576188 0.521829
v -0.018276 0.992424 -7.418633
v 0.018276 0.992424 -7.418633
v -0.018276 1.028975 -7.418633
v 0.018276 1.028975 -7.418633
v 0.018276 0.992424 7.418633
v -0.018276 0.992424 7.418633
v 0.018276 1.028975 7.418633
v -0.018276 1.028975 7.418633
v 7.418633 0.992424 -0.018276
v 7.418633 0.992424 0.018276
v 7.418633 1.028975 -0.018276
v 7.418633 1.028975 0.018276
v -7.418633 0.992424 0.018276
v -7.418633 0.992424 -0.018276
v -7.418633 1.028975 0.018276
v -7.418633 1.028975 -0.018276
v -0.018276 -6.407934 -0.018276
v -0.018276 -6.407934 0.018276
v 0.018276 -6.407934 -0.018276
v 0.018276 -6.407934 0.018276
v 0.018276 8.429334 -0.018276
v 0.018276 8.429334 0.018276
v -0.018276 8.429334 -0.018276
v -0.018276 8.429334 0.018276
vn 0.7609 0.5477 0.3478
vn -0.3478 -0.7609 0.5477
vn -0.5477 -0.7609 -0.3478
vn -0.7609 -0.5477 0.3478
vn 0.5477 -0.7609 0.3478
vn 0.3478 -0.7609 -0.5477
vn -0.3852 0.3852 -0.8386
vn 0.7636 -0.0000 -0.6457
vn 0.8386 0.3852 -0.3852
vn 0.6457 -0.0000 0.7636
vn -0.8386 0.3852 0.3852
vn -0.6457 -0.0000 -0.7636
vn 0.3852 0.3852 0.8386
vn -0.7636 -0.0000 0.6457
vn 0.7636 -0.0000 0.6457
vn 0.9963 -0.0000 0.0857
vn -0.7609 -0.3478 0.5477
vn -0.0000 -0.7636 0.6457
vn -0.7636 -0.0000 -0.6457
vn 0.9963 0.0857 -0.0000
vn 0.7609 -0.3478 -0.5477
vn -0.0000 -0.7636 -0.6457
vn -0.6648 0.6648 -0.3406
vn -0.0000 0.7636 -0.6457
vn 0.3852 -0.8386 -0.3852
vn -0.0000 -0.6457 0.7636
vn 0.6648 0.6648 0.3406
vn -0.0000 0.7636 0.6457
vn -0.3852 0.8386 -0.3852
vn -0.0000 0.6457 0.7636
vn -0.0000 0.6457 -0.7636
vn -0.0000 -0.0857 -0.9963
vn 0.3478 0.5477 0.7609
vn 0.7636 0.6457 -0.0000
vn -0.0000 -0.6457 -0.7636
vn -0.0857 -0.9963 -0.0000
vn -0.3478 -0.5477 0.7609
vn -0.7636 -0.6457 -0.0000
vn -0.6457 -0.0000 0.7636
vn -0.0000 0.9963 0.0857
vn -0.5477 -0.3478 -0.7609
vn -0.6457 -0.7636 -0.0000
vn 0.6457 -0.0000 -0.7636
vn 0.9963 -0.0857 -0.0000
vn 0.5477 -0.3478 0.7609
vn 0.6457 -0.7636 -0.0000
vn 0.3406 0.6648 -0.6648
vn 0.6457 0.7636 -0.0000
vn 0.6648 -0.3406 -0.6648
vn 0.7636 -0.6457 -0.0000
vn -0.3406 0.6648 0.6648
vn -0.6457 0.7636 -0.0000
vn -0.6648 0.3406 -0.6648
vn -0.7636 0.6457 -0.0000
vn -0.0000 -0.0000 1.0000
vn -0.0000 -0.0000 -1.0000
vn -0.0000 1.0000 -0.0000
vn -0.0000 -1.0000 -0.0000
vn -1.0000 -0.0000 -0.0000
vn 1.0000 -0.0000 -0.0000
vn 0.0857 -0.0000 -0.9963
vn -0.0000 -0.9963 -0.0857
vn -0.0000 -0.0857 0.9963
vn -0.9963 -0.0000 0.0857
vn 0.0857 -0.0000 0.9963
vn -0.0857 0.9963 -0.0000
vn -0.9963 0.0857 -0.0000
vn -0.0000 0.9963 -0.0857
vn 0.0857 -0.9963 -0.0000
vn -0.0000 0.0857 -0.9963
vn -0.9963 -0.0857 -0.0000
vn -0.0857 -0.0000 0.9963
vn -0.0000 0.0857 0.9963
vn -0.9963 -0.0000 -0.0857
vn -0.0000 -0.9963 0.0857
vn -0.0857 -0.0000 -0.9963
vn 0.0857 0.9963 -0.0000
vn 0.9963 -0.0000 -0.0857
vn -0.3478 0.5477 -0.7609
vn 0.7609 0.3478 0.5477
vn -0.5477 0.3478 0.7609
vn 0.3478 -0.5477 -0.7609
vn 0.5477 0.3478 -0.7609
vn -0.7609 0.3478 -0.5477
vn 0.6648 -0.6648 -0.3406
vn 0.3406 -0.6648 0.6648
vn -0.3406 -0.6648 -0.6648
vn -0.6648 -0.6648 0.3406
vn 0.3478 0.7609 0.5477
vn -0.3478 0.7609 -0.5477
vn 0.3852 -0.3852 -0.8386
vn -0.6648 -0.3406 0.6648
vn -0.3852 -0.3852 0.8386
vn 0.6648 0.3406 0.6648
vn -0.7609 0.5477 -0.3478
vn 0.7609 -0.5477 -0.3478
vn -0.5477 0.7609 0.3478
vn 0.5477 0.7609 -0.3478
vn 0.8386 -0.3852 0.3852
vn -0.3852 -0.8386 0.3852
vn -0.8386 -0.3852 -0.3852
vn 0.3852 0.8386 0.3852
vt 0.375000 0.859781
vt 0.375000 0.695913
vt 0.448792 0.741620
vt 0.448792 0.597491
vt 0.375000 0.573681
vt 0.198792 0.597491
vt 0.125000 0.695913
vt 0.125000 0.573681
vt 0.625000 0.140219
vt 0.625000 0.304087
vt 0.551208 0.258380
vt 0.698792 0.597491
vt 0.625000 0.695913
vt 0.625000 0.573681
vt 0.948792 0.597491
vt 0.875000 0.695913
vt 0.875000 0.573681
vt 0.948792 0.258380
vt 0.875000 0.426318
vt 0.875000 0.304087
vt 0.948792 0.402509
vt 0.698792 0.258380
vt 0.625000 0.426318
vt 0.698792 0.402509
vt 0.198792 0.258380
vt 0.125000 0.426318
vt 0.125000 0.304087
vt 0.198792 0.402509
vt 0.448792 0.258380
vt 0.375000 0.426318
vt 0.375000 0.304087
vt 0.448792 0.402509
vt 0.551208 0.402509
vt 0.551208 0.597491
vt 0.500392 0.499216
vt 0.051208 0.402509
vt 0.875000 0.859781
vt 0.625005 0.998891
vt 0.625000 0.859781
vt 0.051208 0.258380
vt 1.051208 0.402509
vt 1.051208 0.258380
vt 0.051208 0.741619
vt 0.051208 0.597491
vt 1.051208 0.741619
vt 1.051208 0.597491
vt 0.301208 0.258380
vt 0.375000 0.140219
vt 0.551208 0.741620
vt 0.698792 0.741619
vt 0.948792 0.741619
vt 0.875000 0.140219
vt 1.125006 0.001109
vt 1.125000 0.140219
vt 0.801208 0.741619
vt 0.301208 0.402509
vt 0.249608 0.499216
vt 0.125000 0.140219
vt 0.500392 0.500784
vt 0.801208 0.402509
vt 0.875000 0.001109
vt 0.801208 0.258380
vt 0.801208 0.597491
vt 0.301208 0.741620
vt 0.301208 0.597491
vt 0.198792 0.741620
vt 0.125000 0.859781
vt 0.499608 0.499216
vt 1.000392 0.500784
vt 0.999608 0.499216
vt 1.000392 0.499216
vt 1.124995 0.998891
vt 0.875000 0.998891
vt 0.375000 0.001109
vt 0.125006 0.001109
vt 0.250392 0.500784
vt 0.250392 0.499216
vt 0.750392 0.500784
vt 0.749608 0.499216
vt 0.750392 0.499216
vt 0.624994 0.001109
vt 0.499608 0.500784
vt 0.749608 0.500784
vt 0.124995 0.998891
vt 1.125000 0.859781
vt 0.375000 0.998891
vt 0.000392 0.499216
vt 0.249608 0.500784
vt 0.999608 0.500784
vt 0.000392 0.500784
s 0
usemtl Material
f 56/1/1 7/2/1 20/3/1
f 32/4/2 7/2/2 12/5/2
f 48/6/3 5/7/3 15/8/3
f 52/9/4 4/10/4 22/11/4
f 44/12/5 3/13/5 13/14/5
f 28/15/6 1/16/6 9/17/6
f 17/18/7 10/19/7 2/20/7
f 26/21/8 9/17/8 10/19/8
f 39/22/9 14/23/9 4/10/9
f 42/24/10 13/14/10 14/23/10
f 33/25/11 16/26/11 6/27/11
f 46/28/12 15/8/12 16/26/12
f 21/29/13 11/30/13 8/31/13
f 30/32/14 12/5/14 11/30/14
f 13/14/15 29/33/15 14/23/15
f 31/34/16 61/35/16 29/33/16
f 4/10/17 29/33/17 22/11/17
f 29/33/18 21/29/18 22/11/18
f 15/8/19 25/36/19 16/26/19
f 53/37/20 78/38/20 54/39/20
f 6/27/21 25/36/21 18/40/21
f 25/41/22 17/18/22 18/42/22
f 15/8/23 23/43/23 27/44/23
f 23/45/24 28/15/24 27/46/24
f 34/47/25 21/29/25 8/31/25
f 52/9/26 21/29/26 50/48/26
f 13/14/27 19/49/27 31/34/27
f 19/49/28 32/4/28 31/34/28
f 36/50/29 19/49/29 3/13/29
f 56/1/30 19/49/30 54/39/30
f 23/45/31 53/37/31 24/51/31
f 51/52/32 73/53/32 49/54/32
f 1/16/33 53/37/33 35/55/33
f 53/37/34 36/50/34 35/55/34
f 17/18/35 49/54/35 18/42/35
f 45/56/36 70/57/36 46/28/36
f 6/27/37 49/58/37 33/25/37
f 49/58/38 34/47/38 33/25/38
f 12/5/39 45/56/39 11/30/39
f 32/4/40 63/59/40 31/34/40
f 8/31/41 45/56/41 34/47/41
f 45/56/42 33/25/42 34/47/42
f 9/17/43 41/60/43 10/19/43
f 52/9/44 75/61/44 51/52/44
f 2/20/45 41/60/45 40/62/45
f 41/60/46 39/22/46 40/62/46
f 9/17/47 35/55/47 43/63/47
f 35/55/48 44/12/48 43/63/48
f 17/18/49 40/62/49 51/52/49
f 40/62/50 52/9/50 51/52/50
f 12/5/51 37/64/51 47/65/51
f 37/64/52 48/6/52 47/65/52
f 23/43/53 38/66/53 55/67/53
f 38/66/54 56/1/54 55/67/54
f 63/59/55 62/68/55 61/35/55
f 59/69/56 58/70/56 57/71/56
f 79/72/57 78/38/57 77/73/57
f 75/61/58 74/74/58 73/75/58
f 71/76/59 70/57/59 69/77/59
f 67/78/60 66/79/60 65/80/60
f 43/63/61 65/80/61 41/60/61
f 25/41/62 58/70/62 26/21/62
f 50/48/63 76/81/63 52/9/63
f 30/32/64 64/82/64 32/4/64
f 42/24/65 68/83/65 44/12/65
f 48/6/66 71/76/66 47/65/66
f 56/1/67 79/84/67 55/67/67
f 28/15/68 59/69/68 27/46/68
f 41/60/69 66/79/69 42/24/69
f 55/85/70 77/73/70 53/37/70
f 49/58/71 74/74/71 50/48/71
f 47/65/72 69/77/72 45/56/72
f 54/39/73 80/86/73 56/1/73
f 27/44/74 57/87/74 25/36/74
f 29/33/75 62/68/75 30/32/75
f 46/28/76 72/88/76 48/6/76
f 44/12/77 67/78/77 43/63/77
f 26/21/78 60/89/78 28/15/78
f 56/1/79 37/64/79 7/2/79
f 32/4/80 20/3/80 7/2/80
f 48/6/81 38/66/81 5/7/81
f 52/9/82 39/22/82 4/10/82
f 44/12/83 36/50/83 3/13/83
f 28/15/84 24/51/84 1/16/84
f 17/18/85 26/21/85 10/19/85
f 26/21/8 28/15/8 9/17/8
f 39/22/86 42/24/86 14/23/86
f 42/24/10 44/12/10 13/14/10
f 33/25/87 46/28/87 16/26/87
f 46/28/12 48/6/12 15/8/12
f 21/29/88 30/32/88 11/30/88
f 30/32/14 32/4/14 12/5/14
f 13/14/15 31/34/15 29/33/15
f 31/34/16 63/59/16 61/35/16
f 4/10/89 14/23/89 29/33/89
f 29/33/18 30/32/18 21/29/18
f 15/8/19 27/44/19 25/36/19
f 53/37/20 77/73/20 78/38/20
f 6/27/90 16/26/90 25/36/90
f 25/41/22 26/21/22 17/18/22
f 15/8/91 5/7/91 23/43/91
f 23/45/24 24/51/24 28/15/24
f 34/47/92 50/48/92 21/29/92
f 52/9/26 22/11/26 21/29/26
f 13/14/93 3/13/93 19/49/93
f 19/49/28 20/3/28 32/4/28
f 36/50/94 54/39/94 19/49/94
f 56/1/30 20/3/30 19/49/30
f 23/45/31 55/85/31 53/37/31
f 51/52/32 75/61/32 73/53/32
f 1/16/95 24/51/95 53/37/95
f 53/37/34 54/39/34 36/50/34
f 17/18/35 51/52/35 49/54/35
f 45/56/36 69/77/36 70/57/36
f 6/27/96 18/40/96 49/58/96
f 49/58/38 50/48/38 34/47/38
f 12/5/39 47/65/39 45/56/39
f 32/4/40 64/82/40 63/59/40
f 8/31/97 11/30/97 45/56/97
f 45/56/42 46/28/42 33/25/42
f 9/17/43 43/63/43 41/60/43
f 52/9/44 76/81/44 75/61/44
f 2/20/98 10/19/98 41/60/98
f 41/60/46 42/24/46 39/22/46
f 9/17/99 1/16/99 35/55/99
f 35/55/48 36/50/48 44/12/48
f 17/18/100 2/20/100 40/62/100
f 40/62/50 39/22/50 52/9/50
f 12/5/101 7/2/101 37/64/101
f 37/64/52 38/66/52 48/6/52
f 23/43/102 5/7/102 38/66/102
f 38/66/54 37/64/54 56/1/54
f 63/59/55 64/82/55 62/68/55
f 59/69/56 60/89/56 58/70/56
f 79/72/57 80/86/57 78/38/57
f 75/61/58 76/81/58 74/74/58
f 71/76/59 72/88/59 70/57/59
f 67/78/60 68/83/60 66/79/60
f 43/63/61 67/78/61 65/80/61
f 25/41/62 57/71/62 58/70/62
f 50/48/63 74/74/63 76/81/63
f 30/32/64 62/68/64 64/82/64
f 42/24/65 66/79/65 68/83/65
f 48/6/66 72/88/66 71/76/66
f 56/1/67 80/86/67 79/84/67
f 28/15/68 60/89/68 59/69/68
f 41/60/69 65/80/69 66/79/69
f 55/85/70 79/72/70 77/73/70
f 49/58/71 73/75/71 74/74/71
f 47/65/72 71/76/72 69/77/72
f 54/39/73 78/38/73 80/86/73
f 27/44/74 59/90/74 57/87/74
f 29/33/75 61/35/75 62/68/75
f 46/28/76 70/57/76 72/88/76
f 44/12/77 68/83/77 67/78/77
f 26/21/78 58/70/78 60/89/78
