# Blender 4.1.1
# www.blender.org
mtllib Star.mtl
o Cone
v 0.049624 1.775691 -0.000000
v 0.000000 1.726067 -0.072011
v 0.050919 1.675148 -0.000000
v 0.000000 1.726067 0.072011
v -0.050919 1.776986 0.000000
v -0.049624 1.676443 0.000000
v 0.271352 1.725752 0.001913
v -0.049624 1.775691 -0.000000
v -0.050919 1.675148 -0.000000
v 0.050919 1.776986 0.000000
v 0.049624 1.676443 0.000000
v -0.271352 1.725752 0.001913
v 0.000000 1.168343 -0.000000
v -0.049624 1.775691 -0.000000
v -0.050919 1.675148 -0.000000
v 0.050919 1.776986 0.000000
v 0.049624 1.676443 0.000000
v -0.271352 1.725752 0.001913
v 0.049624 1.775691 -0.000000
v 0.050919 1.675148 -0.000000
v -0.050919 1.776986 0.000000
v -0.049624 1.676443 0.000000
v 0.271352 1.725752 0.001913
v 0.049624 1.676443 -0.000000
v 0.050919 1.776986 -0.000000
v -0.050919 1.675148 0.000000
v -0.049624 1.775691 0.000000
v 0.271352 1.726382 0.001913
v -0.049624 1.676443 -0.000000
v -0.050919 1.776986 -0.000000
v 0.050919 1.675148 0.000000
v 0.049624 1.775691 0.000000
v -0.271352 1.726382 0.001913
v 0.000000 2.283792 -0.000000
v -0.049624 1.676443 -0.000000
v -0.050919 1.776986 -0.000000
v 0.050919 1.675148 0.000000
v 0.049624 1.775691 0.000000
v -0.271352 1.726382 0.001913
v 0.049624 1.676443 -0.000000
v 0.050919 1.776986 -0.000000
v -0.050919 1.675148 0.000000
v -0.049624 1.775691 0.000000
v 0.271352 1.726382 0.001913
vn 0.1757 -0.7409 -0.6482
vn 0.1657 -0.7462 0.6448
vn 0.0106 0.8200 0.5723
vn 0.0106 0.8200 -0.5723
vn 0.7867 -0.0790 0.6122
vn -0.7867 -0.0790 0.6122
vn -0.8200 -0.0106 0.5723
vn -0.8200 -0.0106 -0.5723
vn 0.1647 0.7555 0.6341
vn 0.1745 0.7505 -0.6374
vn -0.1757 -0.7409 -0.6482
vn -0.1657 -0.7462 0.6448
vn -0.0106 0.8200 0.5723
vn -0.0106 0.8200 -0.5723
vn 0.7867 -0.0790 -0.6122
vn -0.7951 -0.0777 -0.6015
vn 0.8200 -0.0106 0.5723
vn 0.8200 -0.0106 -0.5723
vn -0.1647 0.7555 0.6341
vn -0.1745 0.7505 -0.6374
vn 0.7951 -0.0777 0.6015
vn 0.7951 -0.0777 -0.6015
vn -0.7867 -0.0790 -0.6122
vn -0.7951 -0.0777 0.6015
vn 0.1757 0.7409 -0.6482
vn 0.1657 0.7462 0.6448
vn 0.0106 -0.8200 0.5723
vn 0.0106 -0.8200 -0.5723
vn 0.7867 0.0790 0.6122
vn -0.7867 0.0790 0.6122
vn -0.8200 0.0106 0.5723
vn -0.8200 0.0106 -0.5723
vn 0.1647 -0.7555 0.6341
vn 0.1745 -0.7505 -0.6374
vn -0.1757 0.7409 -0.6482
vn -0.1657 0.7462 0.6448
vn -0.0106 -0.8200 0.5723
vn -0.0106 -0.8200 -0.5723
vn 0.7867 0.0790 -0.6122
vn -0.7951 0.0777 -0.6015
vn 0.8200 0.0106 0.5723
vn 0.8200 0.0106 -0.5723
vn -0.1647 -0.7555 0.6341
vn -0.1745 -0.7505 -0.6374
vn 0.7951 0.0777 0.6015
vn 0.7951 0.0777 -0.6015
vn -0.7867 0.0790 -0.6122
vn -0.7951 0.0777 0.6015
vt 0.406175 0.454351
vt 0.500000 0.500000
vt 0.000000 0.499717
vt 0.500000 0.500000
vt 0.593825 0.454351
vt 1.000000 0.499717
vt 0.591439 0.544488
vt 0.406175 0.545649
vt 0.593825 0.545649
vt 0.408561 0.544488
vt 0.500000 0.000000
vt 0.406175 0.454351
vt 0.408561 0.455512
vt 0.591438 0.455512
vt 0.593825 0.454351
vt 1.000000 0.499717
vt 0.000000 0.499717
vt 0.593825 0.545649
vt 0.408561 0.544488
vt 0.406175 0.545649
vt 0.591438 0.544488
vt 0.500000 0.000000
vt 0.591439 0.455512
vt 0.408561 0.455512
vt 0.000000 0.500283
vt 1.000000 0.500283
vt 0.500000 1.000000
vt 1.000000 0.500283
vt 0.000000 0.500283
vt 0.500000 1.000000
s 0
usemtl Material.006
f 3/1/1 2/2/1 7/3/1
f 4/4/2 3/5/2 7/6/2
f 4/4/3 1/7/3 5/8/3
f 5/9/4 1/10/4 2/2/4
f 3/5/5 4/4/5 13/11/5
f 4/4/6 9/12/6 13/11/6
f 4/4/7 5/8/7 6/13/7
f 5/9/8 2/2/8 6/14/8
f 1/7/9 4/4/9 7/6/9
f 2/2/10 1/10/10 7/3/10
f 9/15/11 12/16/11 2/2/11
f 4/4/12 12/17/12 9/12/12
f 4/4/13 10/18/13 8/19/13
f 10/20/14 2/2/14 8/21/14
f 2/2/15 3/1/15 13/22/15
f 6/14/16 2/2/16 13/22/16
f 4/4/17 11/23/17 10/18/17
f 10/20/18 11/24/18 2/2/18
f 8/19/19 12/17/19 4/4/19
f 2/2/20 12/16/20 8/21/20
f 11/23/21 4/4/21 13/11/21
f 2/2/22 11/24/22 13/22/22
f 9/15/23 2/2/23 13/22/23
f 4/4/24 6/13/24 13/11/24
f 15/15/11 18/16/11 2/2/11
f 4/4/12 18/17/12 15/12/12
f 4/4/13 16/18/13 14/19/13
f 16/20/14 2/2/14 14/21/14
f 15/12/6 13/11/6 4/4/6
f 4/4/5 13/11/5 20/5/5
f 4/4/17 17/23/17 16/18/17
f 16/20/18 17/24/18 2/2/18
f 14/19/19 18/17/19 4/4/19
f 2/2/20 18/16/20 14/21/20
f 20/1/1 2/2/1 23/3/1
f 4/4/2 20/5/2 23/6/2
f 4/4/3 19/7/3 21/8/3
f 21/9/4 19/10/4 2/2/4
f 2/2/23 13/22/23 15/15/23
f 17/24/22 13/22/22 2/2/22
f 4/4/7 21/8/7 22/13/7
f 21/9/8 2/2/8 22/14/8
f 19/7/9 4/4/9 23/6/9
f 2/2/10 19/10/10 23/3/10
f 22/13/24 13/11/24 4/4/24
f 2/2/16 13/22/16 22/14/16
f 20/1/15 13/22/15 2/2/15
f 4/4/21 13/11/21 17/23/21
f 25/20/25 28/25/25 2/2/25
f 4/4/26 28/26/26 25/18/26
f 4/4/27 26/12/27 24/23/27
f 26/15/28 2/2/28 24/24/28
f 25/18/29 34/27/29 4/4/29
f 4/4/30 34/27/30 30/8/30
f 4/4/31 27/19/31 26/12/31
f 26/15/32 27/21/32 2/2/32
f 24/23/33 28/26/33 4/4/33
f 2/2/34 28/25/34 24/24/34
f 30/9/35 2/2/35 33/28/35
f 4/4/36 30/8/36 33/29/36
f 4/4/37 29/13/37 31/5/37
f 31/1/38 29/14/38 2/2/38
f 2/2/39 34/30/39 25/20/39
f 27/21/40 34/30/40 2/2/40
f 4/4/41 31/5/41 32/7/41
f 31/1/42 2/2/42 32/10/42
f 29/13/43 4/4/43 33/29/43
f 2/2/44 29/14/44 33/28/44
f 32/7/45 34/27/45 4/4/45
f 2/2/46 34/30/46 32/10/46
f 30/9/47 34/30/47 2/2/47
f 4/4/48 34/27/48 27/19/48
f 36/9/35 2/2/35 39/28/35
f 4/4/36 36/8/36 39/29/36
f 4/4/37 35/13/37 37/5/37
f 37/1/38 35/14/38 2/2/38
f 36/8/30 4/4/30 34/27/30
f 4/4/29 41/18/29 34/27/29
f 4/4/41 37/5/41 38/7/41
f 37/1/42 2/2/42 38/10/42
f 35/13/43 4/4/43 39/29/43
f 2/2/44 35/14/44 39/28/44
f 41/20/25 44/25/25 2/2/25
f 4/4/26 44/26/26 41/18/26
f 4/4/27 42/12/27 40/23/27
f 42/15/28 2/2/28 40/24/28
f 2/2/47 36/9/47 34/30/47
f 38/10/46 2/2/46 34/30/46
f 4/4/31 43/19/31 42/12/31
f 42/15/32 43/21/32 2/2/32
f 40/23/33 44/26/33 4/4/33
f 2/2/34 44/25/34 40/24/34
f 43/19/48 4/4/48 34/27/48
f 2/2/40 43/21/40 34/30/40
f 41/20/39 2/2/39 34/30/39
f 4/4/45 38/7/45 34/27/45
