# Blender 4.1.1
# www.blender.org
mtllib wall2.mtl
o Cube.001
v 1.000000 3.000000 -1.000000
v 1.000000 3.000000 1.000000
v -1.000000 3.000000 -1.000000
v -1.000000 3.000000 1.000000
v 1.000000 1.247619 -1.000000
v -1.000000 1.247619 1.000000
v 1.000000 1.247619 1.000000
v -1.000000 1.247619 -1.000000
v -1.000000 -1.000000 -1.000000
v -1.000000 -1.000000 1.000000
v 1.000000 -1.000000 -1.000000
v 1.000000 -1.000000 1.000000
v -1.000000 0.752382 -1.000000
v 1.000000 0.752380 1.000000
v -1.000000 0.752381 1.000000
v 1.000000 0.752381 -1.000000
v -1.000000 0.876191 -1.000000
v -1.000000 0.876191 1.000000
v 1.000000 0.876190 -1.000000
v 1.000000 0.876190 1.000000
v 1.000000 1.123810 -1.000000
v 1.000000 1.123810 1.000000
v -1.000000 1.123810 -1.000000
v -1.000000 1.123810 1.000000
v 1.032237 1.000000 -1.032237
v 1.032237 1.000000 1.032237
v -1.032237 1.000000 -1.032237
v -1.032237 1.000000 1.032237
v -1.032236 1.000001 -1.032236
v -1.032236 1.000000 1.032237
v 1.032237 1.000000 -1.032236
v 1.032237 0.999999 1.032237
v -1.032236 0.872200 -1.032236
v -1.032236 0.872199 1.032237
v 1.032237 0.872199 -1.032236
v 1.032237 0.872199 1.032237
v 1.032237 1.127801 -1.032237
v 1.032237 1.127801 1.032237
v -1.032237 1.127801 -1.032237
v -1.032237 1.127801 1.032237
vn -0.0000 1.0000 -0.0000
vn -0.0000 -0.0000 1.0000
vn -1.0000 -0.0000 -0.0000
vn 1.0000 -0.0000 -0.0000
vn -0.0000 -0.0000 -1.0000
vn -0.0000 -1.0000 -0.0000
vn -0.0000 -0.9924 0.1229
vn 0.1229 0.9924 -0.0000
vn -0.0000 -0.9924 -0.1229
vn -0.0000 0.9924 0.1229
vn 0.1229 -0.9924 -0.0000
vn -0.0000 0.9924 -0.1229
vn -0.1229 0.9924 -0.0000
vn -0.1229 -0.9924 -0.0000
vt 0.224927 0.297073
vt 0.075073 0.446927
vt 0.075073 0.297073
vt 1.000000 1.000000
vt 0.000000 0.123810
vt 1.000000 0.123810
vt 0.000000 0.061905
vt 1.000000 0.061905
vt 0.000000 0.061905
vt 1.000000 0.061905
vt 0.929339 0.302661
vt 0.786661 0.445339
vt 0.786661 0.302661
vt 1.000000 0.000000
vt 0.000000 0.000000
vt 0.224927 0.446927
vt 0.000000 1.000000
vt 0.929339 0.445339
s 0
usemtl Material
f 3/1/1 2/2/1 1/3/1
f 2/4/2 6/5/2 7/6/2
f 4/4/3 8/5/3 6/6/3
f 1/4/4 7/5/4 5/6/4
f 3/4/5 5/5/5 8/6/5
f 8/6/5 21/7/5 23/8/5
f 5/6/4 22/7/4 21/8/4
f 6/6/3 23/7/3 24/8/3
f 7/6/2 24/7/2 22/8/2
f 11/1/6 10/2/6 9/3/6
f 10/4/2 14/5/2 15/6/2
f 12/4/4 16/5/4 14/6/4
f 9/4/3 15/5/3 13/6/3
f 11/4/5 13/5/5 16/6/5
f 16/6/5 17/9/5 19/8/5
f 13/6/3 18/7/3 17/8/3
f 14/6/4 19/7/4 20/10/4
f 15/6/2 20/7/2 18/10/2
f 19/8/7 33/9/7 35/8/7
f 23/7/8 40/8/8 24/8/8
f 18/10/9 36/7/9 34/10/9
f 21/7/10 39/8/10 23/8/10
f 18/7/11 33/8/11 17/8/11
f 24/7/12 38/8/12 22/8/12
f 22/7/13 37/8/13 21/8/13
f 20/10/14 35/7/14 36/10/14
f 25/11/6 28/12/6 27/13/6
f 29/11/1 32/12/1 31/13/1
f 30/14/2 36/7/2 32/15/2
f 36/10/4 31/15/4 32/14/4
f 33/8/3 30/15/3 29/14/3
f 35/8/5 29/15/5 31/14/5
f 38/8/2 28/15/2 26/14/2
f 40/8/3 27/15/3 28/14/3
f 37/8/4 26/15/4 25/14/4
f 39/8/5 25/15/5 27/14/5
f 3/1/1 4/16/1 2/2/1
f 2/4/2 4/17/2 6/5/2
f 4/4/3 3/17/3 8/5/3
f 1/4/4 2/17/4 7/5/4
f 3/4/5 1/17/5 5/5/5
f 8/6/5 5/5/5 21/7/5
f 5/6/4 7/5/4 22/7/4
f 6/6/3 8/5/3 23/7/3
f 7/6/2 6/5/2 24/7/2
f 11/1/6 12/16/6 10/2/6
f 10/4/2 12/17/2 14/5/2
f 12/4/4 11/17/4 16/5/4
f 9/4/3 10/17/3 15/5/3
f 11/4/5 9/17/5 13/5/5
f 16/6/5 13/5/5 17/9/5
f 13/6/3 15/5/3 18/7/3
f 14/6/4 16/5/4 19/7/4
f 15/6/2 14/5/2 20/7/2
f 19/8/7 17/9/7 33/9/7
f 23/7/8 39/7/8 40/8/8
f 18/10/9 20/7/9 36/7/9
f 21/7/10 37/7/10 39/8/10
f 18/7/11 34/7/11 33/8/11
f 24/7/12 40/7/12 38/8/12
f 22/7/13 38/7/13 37/8/13
f 20/10/14 19/7/14 35/7/14
f 25/11/6 26/18/6 28/12/6
f 29/11/1 30/18/1 32/12/1
f 30/14/2 34/10/2 36/7/2
f 36/10/4 35/7/4 31/15/4
f 33/8/3 34/7/3 30/15/3
f 35/8/5 33/9/5 29/15/5
f 38/8/2 40/7/2 28/15/2
f 40/8/3 39/7/3 27/15/3
f 37/8/4 38/7/4 26/15/4
f 39/8/5 37/7/5 25/15/5
