# Blender 4.1.1
# www.blender.org
mtllib wall.mtl
o Cube
v 1.000000 1.000000 -1.000000
v 1.000000 -1.000000 -1.000000
v 1.000000 1.000000 1.000000
v 1.000000 -1.000000 1.000000
v -1.000000 1.000000 -1.000000
v -1.000000 -1.000000 -1.000000
v -1.000000 1.000000 1.000000
v -1.000000 -1.000000 1.000000
vn -0.0000 1.0000 -0.0000
vn -0.0000 -0.0000 1.0000
vn -1.0000 -0.0000 -0.0000
vn -0.0000 -1.0000 -0.0000
vn 1.0000 -0.0000 -0.0000
vn -0.0000 -0.0000 -1.0000
vt 0.224927 0.297073
vt 0.075073 0.446927
vt 0.075073 0.297073
vt 1.000000 1.000000
vt 0.000000 0.000000
vt 1.000000 0.000000
vt 0.929339 0.302661
vt 0.786661 0.445339
vt 0.786661 0.302661
vt 0.224927 0.446927
vt 0.000000 1.000000
vt 0.929339 0.445339
s 0
usemtl Material
f 5/1/1 3/2/1 1/3/1
f 3/4/2 8/5/2 4/6/2
f 7/4/3 6/5/3 8/6/3
f 2/7/4 8/8/4 6/9/4
f 1/4/5 4/5/5 2/6/5
f 5/4/6 2/5/6 6/6/6
f 5/1/1 7/10/1 3/2/1
f 3/4/2 7/11/2 8/5/2
f 7/4/3 5/11/3 6/5/3
f 2/7/4 4/12/4 8/8/4
f 1/4/5 3/11/5 4/5/5
f 5/4/6 1/11/6 2/5/6
